<?xml version="1.0" encoding="UTF-8" standalone="no"?>
<!DOCTYPE svg PUBLIC "-//W3C//DTD SVG 20010904//EN"
              "http://www.w3.org/TR/2001/REC-SVG-20010904/DTD/svg10.dtd">

<svg xmlns="http://www.w3.org/2000/svg"
     width="4.16667in" height="4.16667in"
     viewBox="0 0 300 300">
  <path id="Selection"
        fill="none" stroke="black" stroke-width="1"
        d="M 161.00,9.21
           C 177.55,9.03 198.37,15.23 213.00,22.74
             247.30,40.36 272.59,68.11 284.46,105.00
             284.46,105.00 288.54,118.00 288.54,118.00
             291.74,132.68 291.02,146.15 291.00,161.00
             290.98,174.20 286.11,193.91 280.83,206.00
             280.83,206.00 269.87,226.00 269.87,226.00
             261.01,241.22 244.50,257.97 229.83,267.69
             210.74,280.35 184.18,290.96 161.00,291.00
             161.00,291.00 137.00,291.00 137.00,291.00
             125.38,290.86 115.84,287.94 105.00,284.46
             66.61,272.12 35.32,242.95 19.17,206.00
             19.17,206.00 15.54,195.00 15.54,195.00
             8.87,174.27 9.52,172.26 8.74,151.00
             6.66,94.03 42.16,41.83 94.00,19.17
             94.00,19.17 105.00,15.54 105.00,15.54
             118.30,11.26 116.98,11.54 131.00,9.21
             131.00,9.21 161.00,9.21 161.00,9.21 Z
           M 107.46,131.04
           C 104.43,138.01 103.92,144.54 104.00,152.00
             104.28,176.07 123.93,195.72 148.00,196.00
             162.45,196.16 174.99,192.15 184.81,181.00
             205.10,157.95 197.48,119.88 168.96,107.46
             160.88,103.94 151.67,103.47 143.00,104.29
             127.10,106.93 114.03,115.94 107.46,131.04 Z
           M 158.28,143.22
           C 162.06,148.09 161.43,159.47 151.00,160.36
             137.90,161.47 134.25,142.38 149.00,139.64
             152.62,139.70 155.87,140.14 158.28,143.22 Z
           M 147.00,147.00
           C 147.00,147.00 147.00,153.00 147.00,153.00
             152.67,153.37 152.82,152.44 153.00,147.00
             153.00,147.00 147.00,147.00 147.00,147.00 Z" />
</svg>
