<?xml version="1.0" encoding="UTF-8" standalone="no"?>
<!DOCTYPE svg PUBLIC "-//W3C//DTD SVG 20010904//EN"
              "http://www.w3.org/TR/2001/REC-SVG-20010904/DTD/svg10.dtd">

<svg xmlns="http://www.w3.org/2000/svg"
     width="4.16667in" height="4.16667in"
     viewBox="0 0 300 300">
  <path id="Selection"
        fill="none" stroke="black" stroke-width="1"
        d="M 171.00,4.12
           C 202.21,12.31 224.71,35.24 231.28,67.00
             232.40,72.39 232.92,71.95 233.00,78.00
             233.15,90.76 232.95,100.72 228.56,113.00
             216.48,146.77 183.51,168.41 148.00,168.00
             141.53,167.92 141.65,167.23 136.00,166.28
             129.22,165.15 122.35,163.59 116.00,160.83
             88.32,148.81 67.05,118.42 67.00,88.00
             67.00,88.00 67.00,82.00 67.00,82.00
             67.01,72.48 70.11,58.65 74.12,50.00
             83.30,30.20 100.22,13.59 121.00,6.30
             121.00,6.30 137.00,2.18 137.00,2.18
             137.00,2.18 146.00,1.42 146.00,1.42
             153.69,0.49 163.53,2.15 171.00,4.12 Z
           M 1.00,288.00
           C 1.01,279.65 2.32,273.08 4.00,265.00
             10.56,233.29 24.45,208.49 47.12,185.42
             54.08,178.34 61.62,172.83 69.61,167.00
             72.16,165.14 77.97,161.16 81.00,160.91
             84.34,160.63 87.46,163.52 90.00,165.36
             95.14,169.09 99.41,171.77 105.00,174.78
             117.44,181.47 136.87,186.14 151.00,186.00
             169.11,185.81 183.07,180.48 199.00,172.63
             203.71,170.30 206.20,168.86 210.28,165.51
             212.75,163.49 215.55,160.63 219.00,160.91
             222.33,161.18 228.44,165.63 231.28,167.61
             240.90,174.33 246.30,178.10 254.54,186.84
             285.82,220.05 297.93,252.96 300.00,298.00
             300.00,298.00 1.00,298.00 1.00,298.00
             1.00,298.00 1.00,288.00 1.00,288.00 Z" />
</svg>
