<?xml version="1.0" encoding="UTF-8" standalone="no"?>
<!DOCTYPE svg PUBLIC "-//W3C//DTD SVG 20010904//EN"
              "http://www.w3.org/TR/2001/REC-SVG-20010904/DTD/svg10.dtd">

<svg xmlns="http://www.w3.org/2000/svg"
     width="4.16615in" height="4.16615in"
     viewBox="0 0 300 300">
  <path id="Selection"
        fill="none" stroke="black" stroke-width="1"
        d="M 71.44,109.09
           C 69.12,102.38 59.05,98.43 57.29,88.85
             56.65,85.39 58.93,82.30 60.57,79.44
             63.52,74.31 75.90,62.31 81.13,59.94
             83.14,59.03 85.87,57.25 88.00,57.25
             90.03,57.25 91.40,58.30 93.13,59.15
             93.13,59.15 98.03,61.56 98.03,61.56
             100.95,63.63 105.40,70.84 112.01,71.76
             117.17,72.48 123.04,68.88 124.52,63.83
             125.09,61.86 125.00,59.07 125.14,57.00
             125.14,57.00 125.14,48.17 125.14,48.17
             126.13,44.37 131.62,37.84 135.28,36.52
             136.90,35.94 139.27,36.01 141.00,36.00
             141.00,36.00 165.71,36.52 165.71,36.52
             167.82,37.29 171.63,41.09 173.05,42.89
             178.11,49.35 175.80,57.93 177.31,64.00
             178.62,69.23 183.68,72.57 189.00,71.85
             195.82,70.92 201.20,59.96 211.96,57.59
             214.96,56.93 217.26,58.79 219.95,59.82
             225.43,61.91 226.43,64.10 230.42,68.14
             237.31,75.10 243.36,78.43 242.98,88.99
             242.61,99.44 231.42,103.43 229.05,110.17
             228.05,113.05 229.01,115.95 230.58,118.41
             236.26,127.29 246.91,125.00 256.00,125.00
             256.00,125.00 264.00,133.00 264.00,133.00
             264.00,133.00 264.00,167.00 264.00,167.00
             264.00,167.00 256.00,175.00 256.00,175.00
             248.01,175.00 238.28,173.18 232.09,179.27
             229.20,182.11 227.30,185.97 228.95,189.99
             232.35,198.27 243.01,200.74 242.99,212.00
             242.98,220.39 237.36,224.96 231.86,230.42
             231.86,230.42 225.48,236.84 225.48,236.84
             222.93,239.05 221.99,239.21 219.09,240.56
             217.57,241.26 215.48,242.49 213.87,242.70
             210.81,243.09 203.29,238.81 201.00,236.86
             197.28,233.69 194.17,228.85 189.00,228.15
             172.47,225.90 175.65,251.51 174.48,254.71
             173.72,256.80 170.56,259.89 168.85,261.39
             165.61,264.24 164.12,263.98 160.00,264.00
             160.00,264.00 133.00,264.00 133.00,264.00
             131.68,259.80 127.01,257.20 125.51,252.72
             123.43,246.50 128.81,232.72 116.91,228.46
             115.35,228.16 113.64,228.01 112.01,228.46
             104.30,229.32 99.25,239.80 89.73,242.48
             86.48,243.39 83.20,241.05 80.28,239.71
             74.66,237.13 63.19,225.21 60.14,219.74
             58.60,216.99 56.67,214.50 57.29,211.15
             59.04,201.64 69.40,197.59 71.44,189.96
             72.97,184.27 70.30,182.01 69.00,177.00
             69.00,177.00 59.99,175.05 59.99,175.05
             59.99,175.05 46.29,174.49 46.29,174.49
             46.29,174.49 36.00,167.00 36.00,167.00
             36.00,167.00 36.00,133.00 36.00,133.00
             36.00,133.00 46.29,125.51 46.29,125.51
             46.29,125.51 58.00,125.00 58.00,125.00
             58.00,125.00 69.00,123.00 69.00,123.00
             70.27,118.13 73.35,114.61 71.44,109.09 Z
           M 130.00,37.00
           C 130.00,37.00 129.00,38.00 129.00,38.00
             129.00,38.00 129.00,37.00 129.00,37.00
             129.00,37.00 130.00,37.00 130.00,37.00 Z
           M 200.00,61.00
           C 200.00,61.00 199.00,62.00 199.00,62.00
             199.00,62.00 199.00,61.00 199.00,61.00
             199.00,61.00 200.00,61.00 200.00,61.00 Z
           M 230.00,63.00
           C 230.00,63.00 229.00,64.00 229.00,64.00
             229.00,64.00 229.00,63.00 229.00,63.00
             229.00,63.00 230.00,63.00 230.00,63.00 Z
           M 183.00,68.00
           C 183.00,68.00 182.00,69.00 182.00,69.00
             182.00,69.00 182.00,68.00 182.00,68.00
             182.00,68.00 183.00,68.00 183.00,68.00 Z
           M 193.00,68.00
           C 193.00,68.00 192.00,69.00 192.00,69.00
             192.00,69.00 192.00,68.00 192.00,68.00
             192.00,68.00 193.00,68.00 193.00,68.00 Z
           M 237.00,70.00
           C 237.00,70.00 236.00,71.00 236.00,71.00
             236.00,71.00 236.00,70.00 236.00,70.00
             236.00,70.00 237.00,70.00 237.00,70.00 Z
           M 62.00,100.00
           C 62.00,100.00 61.00,101.00 61.00,101.00
             61.00,101.00 61.00,100.00 61.00,100.00
             61.00,100.00 62.00,100.00 62.00,100.00 Z
           M 141.96,193.13
           C 141.96,193.13 150.02,195.56 150.02,195.56
             153.27,195.83 154.59,194.22 157.17,193.49
             162.28,192.04 163.34,194.30 173.00,189.21
             184.72,183.04 190.07,173.23 193.28,161.07
             194.25,157.41 195.58,157.48 195.94,152.99
             196.73,143.32 194.72,144.39 193.28,138.93
             190.01,126.56 184.32,116.33 172.20,110.39
             162.37,105.57 162.33,107.98 157.17,106.51
             154.47,105.74 152.75,103.78 149.08,104.45
             149.08,104.45 142.91,106.73 142.91,106.73
             136.50,108.03 129.96,107.17 126.00,114.00
             120.38,114.80 114.80,120.38 114.00,126.00
             105.22,131.10 106.99,147.23 107.00,156.00
             107.01,159.52 106.81,161.03 107.99,164.42
             109.49,168.71 110.00,171.56 114.00,174.00
             114.80,179.62 120.38,185.20 126.00,186.00
             129.51,192.04 135.80,192.32 141.96,193.13 Z
           M 122.00,119.00
           C 122.00,119.00 121.00,120.00 121.00,120.00
             121.00,120.00 121.00,119.00 121.00,119.00
             121.00,119.00 122.00,119.00 122.00,119.00 Z
           M 120.00,121.00
           C 120.00,121.00 119.00,122.00 119.00,122.00
             119.00,122.00 119.00,121.00 119.00,121.00
             119.00,121.00 120.00,121.00 120.00,121.00 Z
           M 120.00,178.00
           C 120.00,178.00 119.00,179.00 119.00,179.00
             119.00,179.00 119.00,178.00 119.00,178.00
             119.00,178.00 120.00,178.00 120.00,178.00 Z
           M 122.00,180.00
           C 122.00,180.00 121.00,181.00 121.00,181.00
             121.00,181.00 121.00,180.00 121.00,180.00
             121.00,180.00 122.00,180.00 122.00,180.00 Z
           M 183.00,231.00
           C 183.00,231.00 182.00,232.00 182.00,232.00
             182.00,232.00 182.00,231.00 182.00,231.00
             182.00,231.00 183.00,231.00 183.00,231.00 Z
           M 198.00,236.00
           C 198.00,236.00 197.00,237.00 197.00,237.00
             197.00,237.00 197.00,236.00 197.00,236.00
             197.00,236.00 198.00,236.00 198.00,236.00 Z
           M 200.00,238.00
           C 200.00,238.00 199.00,239.00 199.00,239.00
             199.00,239.00 199.00,238.00 199.00,238.00
             199.00,238.00 200.00,238.00 200.00,238.00 Z
           M 130.00,262.00
           C 130.00,262.00 129.00,263.00 129.00,263.00
             129.00,263.00 129.00,262.00 129.00,262.00
             129.00,262.00 130.00,262.00 130.00,262.00 Z" />
</svg>
