<?xml version="1.0" encoding="UTF-8" standalone="no"?>
<!DOCTYPE svg PUBLIC "-//W3C//DTD SVG 20010904//EN"
              "http://www.w3.org/TR/2001/REC-SVG-20010904/DTD/svg10.dtd">

<svg xmlns="http://www.w3.org/2000/svg"
     width="4.16615in" height="4.16615in"
     viewBox="0 0 300 300">
  <path id="Selection"
        fill="none" stroke="black" stroke-width="1"
        d="M 100.00,13.53
           C 103.23,11.06 108.95,8.69 113.00,8.22
             116.72,7.79 123.12,9.45 127.00,10.20
             127.00,10.20 147.00,13.80 147.00,13.80
             147.00,13.80 155.00,15.91 155.00,15.91
             155.00,15.91 204.00,25.28 204.00,25.28
             204.00,25.28 218.00,28.71 218.00,28.71
             218.00,28.71 260.00,36.44 260.00,36.44
             269.21,39.27 271.58,45.64 276.00,47.00
             276.22,53.44 278.98,52.62 279.00,65.00
             279.00,65.00 279.00,188.00 279.00,188.00
             279.00,188.00 279.00,228.00 279.00,228.00
             279.00,244.90 280.35,254.14 271.98,269.91
             266.46,280.30 261.51,280.51 256.00,287.00
             248.77,287.28 248.02,291.94 235.00,292.00
             231.06,292.02 223.63,292.13 220.00,291.31
             215.88,290.39 212.27,288.31 208.00,288.00
             205.41,285.18 203.87,283.59 200.00,283.00
             199.18,280.20 196.82,277.75 194.00,277.00
             193.10,272.94 189.94,269.76 188.13,266.00
             185.12,259.71 184.01,254.90 184.00,248.00
             183.99,241.54 183.54,235.20 185.71,229.00
             193.02,208.18 211.41,196.76 233.00,197.00
             240.89,197.09 243.80,198.51 251.00,201.00
             251.00,201.00 251.00,90.00 251.00,90.00
             251.00,90.00 217.00,83.29 217.00,83.29
             217.00,83.29 174.00,75.21 174.00,75.21
             174.00,75.21 141.00,68.58 141.00,68.58
             141.00,68.58 117.00,64.00 117.00,64.00
             117.00,64.00 117.00,216.00 117.00,216.00
             117.00,216.00 114.70,234.00 114.70,234.00
             114.70,234.00 109.00,247.00 109.00,247.00
             105.11,248.24 101.45,253.75 99.00,257.00
             99.00,257.00 82.00,264.15 82.00,264.15
             77.02,265.39 63.10,265.55 57.96,264.15
             54.26,263.47 47.37,260.56 44.05,258.62
             40.63,256.63 38.81,254.60 36.04,251.85
             36.04,251.85 30.14,245.55 30.14,245.55
             15.64,225.47 20.70,195.00 39.72,179.80
             53.96,168.41 72.56,167.64 89.00,174.00
             89.00,174.00 89.00,38.00 89.00,38.00
             89.00,38.00 92.00,20.00 92.00,20.00
             95.22,18.91 97.28,15.62 100.00,13.53 Z
           M 114.00,232.00
           C 114.00,232.00 115.00,233.00 115.00,233.00
             115.00,233.00 115.00,232.00 115.00,232.00
             115.00,232.00 114.00,232.00 114.00,232.00 Z" />
</svg>
