<?xml version="1.0" encoding="UTF-8" standalone="no"?>
<!DOCTYPE svg PUBLIC "-//W3C//DTD SVG 20010904//EN"
              "http://www.w3.org/TR/2001/REC-SVG-20010904/DTD/svg10.dtd">

<svg xmlns="http://www.w3.org/2000/svg"
     width="7.11022in" height="7.11022in"
     viewBox="0 0 512 512">
  <path id="Selection"
        fill="none" stroke="black" stroke-width="1"
        d="M 304.43,111.41
           C 304.43,111.41 305.00,129.00 305.00,129.00
             305.00,129.00 305.00,185.00 305.00,185.00
             305.00,185.00 305.00,416.00 305.00,416.00
             305.00,416.00 298.00,415.00 298.00,415.00
             298.00,415.00 297.00,414.00 297.00,414.00
             296.16,410.79 296.21,410.84 293.00,410.00
             292.01,405.87 291.24,405.22 287.00,405.00
             287.00,405.00 282.04,398.94 282.04,398.94
             282.04,398.94 279.29,393.92 279.29,393.92
             279.29,393.92 273.19,389.97 273.19,389.97
             273.19,389.97 267.00,385.00 267.00,385.00
             266.01,380.87 265.24,380.22 261.00,380.00
             260.30,377.08 259.89,376.73 257.00,376.00
             257.00,376.00 256.00,375.00 256.00,375.00
             255.42,370.14 251.77,366.73 247.00,366.00
             247.00,366.00 246.00,365.00 246.00,365.00
             244.50,359.63 238.78,355.41 234.00,353.00
             234.00,353.00 235.00,355.00 235.00,355.00
             235.00,355.00 232.00,352.00 232.00,352.00
             232.00,352.00 234.00,353.00 234.00,353.00
             234.00,353.00 229.00,348.00 229.00,348.00
             229.00,348.00 230.00,350.00 230.00,350.00
             230.00,350.00 229.00,350.00 229.00,350.00
             227.24,343.57 226.79,345.44 222.00,342.00
             222.00,342.00 224.00,343.00 224.00,343.00
             224.00,343.00 219.00,338.00 219.00,338.00
             219.00,338.00 220.00,340.00 220.00,340.00
             220.00,340.00 219.00,340.00 219.00,340.00
             216.42,334.05 215.08,330.73 208.00,330.00
             208.00,330.00 207.00,329.00 207.00,329.00
             206.16,325.79 206.21,325.84 203.00,325.00
             202.02,320.80 201.20,319.98 197.00,319.00
             196.16,315.79 196.21,315.84 193.00,315.00
             193.00,315.00 194.00,313.00 194.00,313.00
             194.00,313.00 191.00,314.00 191.00,314.00
             190.66,306.58 186.14,307.09 183.18,305.01
             180.16,302.88 182.49,302.47 177.00,300.00
             176.16,296.53 175.47,295.84 172.00,295.00
             170.79,292.28 170.97,291.71 168.00,291.00
             168.00,291.00 169.00,289.00 169.00,289.00
             169.00,289.00 166.00,290.00 166.00,290.00
             165.58,284.77 162.20,281.53 157.00,281.00
             157.00,281.00 156.00,280.00 156.00,280.00
             155.30,277.08 154.89,276.73 152.00,276.00
             151.51,272.14 149.89,270.38 146.00,270.00
             145.30,267.08 144.89,266.73 142.00,266.00
             142.00,266.00 142.00,261.00 142.00,261.00
             144.92,260.30 145.27,259.89 146.00,257.00
             146.00,257.00 149.00,258.00 149.00,258.00
             149.00,258.00 148.00,256.00 148.00,256.00
             148.00,256.00 153.66,251.52 153.66,251.52
             153.66,251.52 166.94,238.16 166.94,238.16
             166.94,238.16 171.00,233.00 171.00,233.00
             171.00,233.00 174.00,234.00 174.00,234.00
             174.00,234.00 173.00,232.00 173.00,232.00
             176.21,231.16 176.16,231.21 177.00,228.00
             177.00,228.00 178.00,227.00 178.00,227.00
             181.21,226.16 181.16,226.21 182.00,223.00
             182.00,223.00 183.00,222.00 183.00,222.00
             186.21,221.16 186.16,221.21 187.00,218.00
             187.00,218.00 188.00,217.00 188.00,217.00
             191.21,216.16 191.16,216.21 192.00,213.00
             192.00,213.00 193.00,212.00 193.00,212.00
             193.00,212.00 196.00,213.00 196.00,213.00
             196.00,213.00 199.00,210.00 199.00,210.00
             199.00,210.00 200.00,207.00 200.00,207.00
             200.00,207.00 199.00,209.00 199.00,209.00
             199.00,209.00 204.00,204.00 204.00,204.00
             204.00,204.00 202.00,205.00 202.00,205.00
             202.00,205.00 205.00,202.00 205.00,202.00
             205.00,202.00 204.00,204.00 204.00,204.00
             204.00,204.00 209.00,199.00 209.00,199.00
             209.00,199.00 207.00,200.00 207.00,200.00
             207.00,200.00 210.00,197.00 210.00,197.00
             210.00,197.00 209.00,199.00 209.00,199.00
             209.00,199.00 214.00,194.00 214.00,194.00
             214.00,194.00 212.00,195.00 212.00,195.00
             212.00,195.00 215.00,192.00 215.00,192.00
             215.00,192.00 214.00,194.00 214.00,194.00
             214.00,194.00 219.00,189.00 219.00,189.00
             219.00,189.00 217.00,190.00 217.00,190.00
             217.00,190.00 220.00,187.00 220.00,187.00
             220.00,187.00 219.00,189.00 219.00,189.00
             222.44,187.01 224.92,186.00 226.00,182.00
             226.00,182.00 227.00,181.00 227.00,181.00
             229.92,180.30 230.27,179.89 231.00,177.00
             231.00,177.00 232.00,176.00 232.00,176.00
             234.92,175.30 235.27,174.89 236.00,172.00
             236.00,172.00 237.00,171.00 237.00,171.00
             239.92,170.30 240.27,169.89 241.00,167.00
             241.00,167.00 242.00,166.00 242.00,166.00
             244.92,165.30 245.27,164.89 246.00,162.00
             246.00,162.00 249.00,163.00 249.00,163.00
             249.00,163.00 248.00,161.00 248.00,161.00
             248.00,161.00 253.66,156.52 253.66,156.52
             253.66,156.52 266.94,143.16 266.94,143.16
             266.94,143.16 271.00,138.00 271.00,138.00
             271.00,138.00 274.00,139.00 274.00,139.00
             274.00,139.00 273.00,137.00 273.00,137.00
             276.21,136.16 276.16,136.21 277.00,133.00
             277.00,133.00 278.00,132.00 278.00,132.00
             281.21,131.16 281.16,131.21 282.00,128.00
             282.00,128.00 283.00,127.00 283.00,127.00
             286.21,126.16 286.16,126.21 287.00,123.00
             287.00,123.00 288.00,122.00 288.00,122.00
             291.21,121.16 291.16,121.21 292.00,118.00
             292.00,118.00 293.00,117.00 293.00,117.00
             293.00,117.00 296.00,118.00 296.00,118.00
             296.00,118.00 299.00,115.00 299.00,115.00
             299.00,115.00 300.00,112.00 300.00,112.00
             300.00,112.00 299.00,114.00 299.00,114.00
             299.00,114.00 302.00,109.00 302.00,109.00
             302.00,109.00 304.43,111.41 304.43,111.41 Z
           M 52.00,110.00
           C 52.00,110.00 63.00,110.68 63.00,110.68
             63.00,110.68 77.00,110.00 77.00,110.00
             77.00,110.00 88.00,110.68 88.00,110.68
             88.00,110.68 101.00,110.00 101.00,110.00
             108.29,110.04 112.84,109.52 113.00,118.00
             113.00,118.00 113.00,123.00 113.00,123.00
             113.00,123.00 112.34,134.00 112.34,134.00
             112.34,134.00 113.00,149.00 113.00,149.00
             113.00,149.00 112.34,159.00 112.34,159.00
             112.34,159.00 113.00,175.00 113.00,175.00
             113.00,175.00 112.34,184.00 112.34,184.00
             112.34,184.00 113.00,198.00 113.00,198.00
             113.00,198.00 112.34,209.00 112.34,209.00
             112.34,209.00 113.00,219.00 113.00,219.00
             113.00,219.00 112.34,234.00 112.34,234.00
             112.34,234.00 113.00,243.00 113.00,243.00
             113.00,243.00 113.00,248.00 113.00,248.00
             113.00,248.00 112.34,259.00 112.34,259.00
             112.34,259.00 113.00,269.00 113.00,269.00
             113.00,269.00 113.00,273.00 113.00,273.00
             113.00,273.00 112.34,284.00 112.34,284.00
             112.34,284.00 113.00,300.00 113.00,300.00
             113.00,300.00 112.34,309.00 112.34,309.00
             112.34,309.00 113.00,323.00 113.00,323.00
             113.00,323.00 112.34,334.00 112.34,334.00
             112.34,334.00 113.00,350.00 113.00,350.00
             113.00,350.00 112.34,359.00 112.34,359.00
             112.34,359.00 113.00,373.00 113.00,373.00
             113.00,373.00 112.34,384.00 112.34,384.00
             112.34,384.00 113.00,398.00 113.00,398.00
             112.98,408.03 111.19,407.39 114.00,418.00
             103.22,414.88 105.10,416.95 95.00,417.00
             95.00,417.00 79.00,416.32 79.00,416.32
             79.00,416.32 65.00,417.00 65.00,417.00
             65.00,417.00 54.00,416.32 54.00,416.32
             49.20,416.68 34.27,418.74 31.31,414.49
             29.78,412.29 30.00,407.64 30.00,405.00
             30.00,405.00 30.68,390.00 30.68,390.00
             30.68,390.00 30.00,378.00 30.00,378.00
             30.00,378.00 30.68,365.00 30.68,365.00
             30.68,365.00 30.00,353.00 30.00,353.00
             30.00,353.00 30.68,340.00 30.68,340.00
             30.68,340.00 30.00,326.00 30.00,326.00
             30.00,326.00 30.68,315.00 30.68,315.00
             30.68,315.00 30.00,301.00 30.00,301.00
             30.00,301.00 30.68,290.00 30.68,290.00
             30.68,290.00 30.00,280.00 30.00,280.00
             30.00,280.00 30.68,265.00 30.68,265.00
             30.68,265.00 30.00,253.00 30.00,253.00
             30.00,253.00 30.68,240.00 30.68,240.00
             30.68,240.00 30.00,226.00 30.00,226.00
             30.00,226.00 30.68,215.00 30.68,215.00
             30.68,215.00 30.00,201.00 30.00,201.00
             30.00,201.00 30.68,190.00 30.68,190.00
             30.68,190.00 30.00,177.00 30.00,177.00
             30.00,177.00 30.68,165.00 30.68,165.00
             30.68,165.00 30.00,151.00 30.00,151.00
             30.00,151.00 30.68,140.00 30.68,140.00
             30.68,140.00 30.00,127.00 30.00,127.00
             30.05,117.48 31.42,120.85 30.00,110.00
             30.00,110.00 52.00,110.00 52.00,110.00 Z
           M 497.00,110.00
           C 497.00,110.00 496.32,127.00 496.32,127.00
             496.32,127.00 497.00,141.00 497.00,141.00
             497.00,141.00 496.32,152.00 496.32,152.00
             496.32,152.00 497.00,166.00 497.00,166.00
             497.00,166.00 496.32,177.00 496.32,177.00
             496.32,177.00 497.00,191.00 497.00,191.00
             497.00,191.00 496.32,202.00 496.32,202.00
             496.32,202.00 497.00,212.00 497.00,212.00
             497.00,212.00 496.32,227.00 496.32,227.00
             496.32,227.00 497.00,239.00 497.00,239.00
             497.00,239.00 496.32,252.00 496.32,252.00
             496.32,252.00 496.32,274.00 496.32,274.00
             496.32,274.00 497.00,289.00 497.00,289.00
             497.00,289.00 496.32,302.00 496.32,302.00
             496.32,302.00 496.32,324.00 496.32,324.00
             496.32,324.00 496.96,333.00 496.96,333.00
             496.96,333.00 496.32,349.00 496.32,349.00
             496.32,349.00 497.00,366.00 497.00,366.00
             497.00,366.00 496.32,377.00 496.32,377.00
             496.32,377.00 497.00,391.00 497.00,391.00
             497.00,391.00 496.32,402.00 496.32,402.00
             496.32,402.00 497.00,412.00 497.00,412.00
             497.00,412.00 497.00,417.00 497.00,417.00
             497.00,417.00 492.00,418.00 492.00,418.00
             492.00,418.00 489.00,413.00 489.00,413.00
             489.00,413.00 490.00,415.00 490.00,415.00
             490.00,415.00 489.00,415.00 489.00,415.00
             488.26,406.18 487.90,410.24 482.00,407.00
             482.00,407.00 484.00,408.00 484.00,408.00
             484.00,408.00 479.00,403.00 479.00,403.00
             479.00,403.00 480.00,405.00 480.00,405.00
             480.00,405.00 477.00,402.00 477.00,402.00
             477.00,402.00 479.00,403.00 479.00,403.00
             475.82,398.04 473.32,394.18 467.00,394.00
             466.16,390.79 466.21,390.84 463.00,390.00
             463.64,384.64 462.30,383.40 457.00,384.00
             456.16,380.79 456.21,380.84 453.00,380.00
             453.00,380.00 452.00,379.00 452.00,379.00
             450.79,373.72 447.55,370.28 442.00,370.00
             440.44,366.51 440.50,366.57 437.00,365.00
             437.00,365.00 439.00,361.00 439.00,361.00
             439.00,361.00 436.00,358.00 436.00,358.00
             436.00,358.00 432.00,360.00 432.00,360.00
             429.58,354.57 429.49,356.99 427.04,353.93
             423.67,349.71 424.05,346.69 417.00,346.00
             415.58,342.90 415.44,341.87 412.00,341.00
             411.91,336.72 410.27,335.04 406.00,335.00
             405.30,332.08 404.89,331.73 402.00,331.00
             402.00,331.00 401.00,330.00 401.00,330.00
             400.09,324.93 397.08,322.59 392.00,323.00
             392.00,323.00 389.00,318.00 389.00,318.00
             389.00,318.00 390.00,320.00 390.00,320.00
             390.00,320.00 387.00,317.00 387.00,317.00
             387.00,317.00 389.00,318.00 389.00,318.00
             385.85,311.77 385.23,311.15 379.00,308.00
             379.00,308.00 380.00,310.00 380.00,310.00
             380.00,310.00 377.00,307.00 377.00,307.00
             377.00,307.00 379.00,308.00 379.00,308.00
             379.00,308.00 374.00,303.00 374.00,303.00
             374.00,303.00 375.00,305.00 375.00,305.00
             375.00,305.00 374.00,305.00 374.00,305.00
             372.26,300.70 371.91,299.25 367.00,299.00
             366.16,295.79 366.21,295.84 363.00,295.00
             363.00,295.00 362.00,294.00 362.00,294.00
             361.39,288.11 358.89,285.61 353.00,285.00
             353.00,285.00 352.00,284.00 352.00,284.00
             351.16,280.79 351.21,280.84 348.00,280.00
             347.01,275.87 346.24,275.22 342.00,275.00
             339.34,269.02 335.90,270.10 336.04,265.87
             336.16,262.57 340.70,259.29 342.91,256.99
             342.91,256.99 363.92,235.59 363.92,235.59
             363.92,235.59 405.00,195.96 405.00,195.96
             405.00,195.96 422.99,178.45 422.99,178.45
             422.99,178.45 444.25,158.41 444.25,158.41
             447.60,155.09 451.87,152.64 453.00,148.00
             456.16,147.23 457.23,146.16 458.00,143.00
             461.47,142.16 462.16,141.47 463.00,138.00
             466.62,137.12 467.12,136.62 468.00,133.00
             471.74,132.09 472.09,131.74 473.00,128.00
             473.00,128.00 477.00,129.00 477.00,129.00
             477.00,129.00 476.00,127.00 476.00,127.00
             476.00,127.00 477.00,126.00 477.00,126.00
             479.92,125.30 480.27,124.89 481.00,122.00
             481.00,122.00 482.00,121.00 482.00,121.00
             484.92,120.30 485.27,119.89 486.00,117.00
             486.00,117.00 487.00,116.00 487.00,116.00
             489.92,115.30 490.27,114.89 491.00,112.00
             491.00,112.00 492.00,111.00 492.00,111.00
             492.00,111.00 497.00,110.00 497.00,110.00 Z
           M 492.00,112.00
           C 492.00,112.00 493.00,113.00 493.00,113.00
             493.00,113.00 493.00,112.00 493.00,112.00
             493.00,112.00 492.00,112.00 492.00,112.00 Z
           M 487.00,117.00
           C 487.00,117.00 488.00,118.00 488.00,118.00
             488.00,118.00 488.00,117.00 488.00,117.00
             488.00,117.00 487.00,117.00 487.00,117.00 Z
           M 293.00,118.00
           C 293.00,118.00 294.00,119.00 294.00,119.00
             294.00,119.00 294.00,118.00 294.00,118.00
             294.00,118.00 293.00,118.00 293.00,118.00 Z
           M 482.00,122.00
           C 482.00,122.00 483.00,123.00 483.00,123.00
             483.00,123.00 483.00,122.00 483.00,122.00
             483.00,122.00 482.00,122.00 482.00,122.00 Z
           M 288.00,123.00
           C 288.00,123.00 289.00,124.00 289.00,124.00
             289.00,124.00 289.00,123.00 289.00,123.00
             289.00,123.00 288.00,123.00 288.00,123.00 Z
           M 477.00,127.00
           C 477.00,127.00 478.00,128.00 478.00,128.00
             478.00,128.00 478.00,127.00 478.00,127.00
             478.00,127.00 477.00,127.00 477.00,127.00 Z
           M 283.00,128.00
           C 283.00,128.00 284.00,129.00 284.00,129.00
             284.00,129.00 284.00,128.00 284.00,128.00
             284.00,128.00 283.00,128.00 283.00,128.00 Z
           M 278.00,133.00
           C 278.00,133.00 279.00,134.00 279.00,134.00
             279.00,134.00 279.00,133.00 279.00,133.00
             279.00,133.00 278.00,133.00 278.00,133.00 Z
           M 268.00,142.00
           C 268.00,142.00 269.00,143.00 269.00,143.00
             269.00,143.00 269.00,142.00 269.00,142.00
             269.00,142.00 268.00,142.00 268.00,142.00 Z
           M 267.00,143.00
           C 267.00,143.00 268.00,144.00 268.00,144.00
             268.00,144.00 268.00,143.00 268.00,143.00
             268.00,143.00 267.00,143.00 267.00,143.00 Z
           M 263.00,147.00
           C 263.00,147.00 264.00,148.00 264.00,148.00
             264.00,148.00 264.00,147.00 264.00,147.00
             264.00,147.00 263.00,147.00 263.00,147.00 Z
           M 262.00,148.00
           C 262.00,148.00 263.00,149.00 263.00,149.00
             263.00,149.00 263.00,148.00 263.00,148.00
             263.00,148.00 262.00,148.00 262.00,148.00 Z
           M 258.00,152.00
           C 258.00,152.00 259.00,153.00 259.00,153.00
             259.00,153.00 259.00,152.00 259.00,152.00
             259.00,152.00 258.00,152.00 258.00,152.00 Z
           M 257.00,153.00
           C 257.00,153.00 258.00,154.00 258.00,154.00
             258.00,154.00 258.00,153.00 258.00,153.00
             258.00,153.00 257.00,153.00 257.00,153.00 Z
           M 253.00,157.00
           C 253.00,157.00 254.00,158.00 254.00,158.00
             254.00,158.00 254.00,157.00 254.00,157.00
             254.00,157.00 253.00,157.00 253.00,157.00 Z
           M 252.00,158.00
           C 252.00,158.00 253.00,159.00 253.00,159.00
             253.00,159.00 253.00,158.00 253.00,158.00
             253.00,158.00 252.00,158.00 252.00,158.00 Z
           M 242.00,167.00
           C 242.00,167.00 243.00,168.00 243.00,168.00
             243.00,168.00 243.00,167.00 243.00,167.00
             243.00,167.00 242.00,167.00 242.00,167.00 Z
           M 237.00,172.00
           C 237.00,172.00 238.00,173.00 238.00,173.00
             238.00,173.00 238.00,172.00 238.00,172.00
             238.00,172.00 237.00,172.00 237.00,172.00 Z
           M 232.00,177.00
           C 232.00,177.00 233.00,178.00 233.00,178.00
             233.00,178.00 233.00,177.00 233.00,177.00
             233.00,177.00 232.00,177.00 232.00,177.00 Z
           M 227.00,182.00
           C 227.00,182.00 228.00,183.00 228.00,183.00
             228.00,183.00 228.00,182.00 228.00,182.00
             228.00,182.00 227.00,182.00 227.00,182.00 Z
           M 193.00,213.00
           C 193.00,213.00 194.00,214.00 194.00,214.00
             194.00,214.00 194.00,213.00 194.00,213.00
             194.00,213.00 193.00,213.00 193.00,213.00 Z
           M 188.00,218.00
           C 188.00,218.00 189.00,219.00 189.00,219.00
             189.00,219.00 189.00,218.00 189.00,218.00
             189.00,218.00 188.00,218.00 188.00,218.00 Z
           M 183.00,223.00
           C 183.00,223.00 184.00,224.00 184.00,224.00
             184.00,224.00 184.00,223.00 184.00,223.00
             184.00,223.00 183.00,223.00 183.00,223.00 Z
           M 178.00,228.00
           C 178.00,228.00 179.00,229.00 179.00,229.00
             179.00,229.00 179.00,228.00 179.00,228.00
             179.00,228.00 178.00,228.00 178.00,228.00 Z
           M 168.00,237.00
           C 168.00,237.00 169.00,238.00 169.00,238.00
             169.00,238.00 169.00,237.00 169.00,237.00
             169.00,237.00 168.00,237.00 168.00,237.00 Z
           M 167.00,238.00
           C 167.00,238.00 168.00,239.00 168.00,239.00
             168.00,239.00 168.00,238.00 168.00,238.00
             168.00,238.00 167.00,238.00 167.00,238.00 Z
           M 163.00,242.00
           C 163.00,242.00 164.00,243.00 164.00,243.00
             164.00,243.00 164.00,242.00 164.00,242.00
             164.00,242.00 163.00,242.00 163.00,242.00 Z
           M 162.00,243.00
           C 162.00,243.00 163.00,244.00 163.00,244.00
             163.00,244.00 163.00,243.00 163.00,243.00
             163.00,243.00 162.00,243.00 162.00,243.00 Z
           M 158.00,247.00
           C 158.00,247.00 159.00,248.00 159.00,248.00
             159.00,248.00 159.00,247.00 159.00,247.00
             159.00,247.00 158.00,247.00 158.00,247.00 Z
           M 157.00,248.00
           C 157.00,248.00 158.00,249.00 158.00,249.00
             158.00,249.00 158.00,248.00 158.00,248.00
             158.00,248.00 157.00,248.00 157.00,248.00 Z
           M 153.00,252.00
           C 153.00,252.00 154.00,253.00 154.00,253.00
             154.00,253.00 154.00,252.00 154.00,252.00
             154.00,252.00 153.00,252.00 153.00,252.00 Z
           M 152.00,253.00
           C 152.00,253.00 153.00,254.00 153.00,254.00
             153.00,254.00 153.00,253.00 153.00,253.00
             153.00,253.00 152.00,253.00 152.00,253.00 Z
           M 337.00,268.00
           C 337.00,268.00 338.00,269.00 338.00,269.00
             338.00,269.00 338.00,268.00 338.00,268.00
             338.00,268.00 337.00,268.00 337.00,268.00 Z
           M 338.00,269.00
           C 338.00,269.00 339.00,270.00 339.00,270.00
             339.00,270.00 339.00,269.00 339.00,269.00
             339.00,269.00 338.00,269.00 338.00,269.00 Z
           M 342.00,273.00
           C 342.00,273.00 343.00,274.00 343.00,274.00
             343.00,274.00 343.00,273.00 343.00,273.00
             343.00,273.00 342.00,273.00 342.00,273.00 Z
           M 157.00,279.00
           C 157.00,279.00 158.00,280.00 158.00,280.00
             158.00,280.00 158.00,279.00 158.00,279.00
             158.00,279.00 157.00,279.00 157.00,279.00 Z
           M 353.00,283.00
           C 353.00,283.00 354.00,284.00 354.00,284.00
             354.00,284.00 354.00,283.00 354.00,283.00
             354.00,283.00 353.00,283.00 353.00,283.00 Z
           M 172.00,293.00
           C 172.00,293.00 173.00,294.00 173.00,294.00
             173.00,294.00 173.00,293.00 173.00,293.00
             173.00,293.00 172.00,293.00 172.00,293.00 Z
           M 363.00,293.00
           C 363.00,293.00 364.00,294.00 364.00,294.00
             364.00,294.00 364.00,293.00 364.00,293.00
             364.00,293.00 363.00,293.00 363.00,293.00 Z
           M 178.00,299.00
           C 178.00,299.00 179.00,300.00 179.00,300.00
             179.00,300.00 179.00,299.00 179.00,299.00
             179.00,299.00 178.00,299.00 178.00,299.00 Z
           M 182.00,303.00
           C 182.00,303.00 183.00,304.00 183.00,304.00
             183.00,304.00 183.00,303.00 183.00,303.00
             183.00,303.00 182.00,303.00 182.00,303.00 Z
           M 183.00,304.00
           C 183.00,304.00 184.00,305.00 184.00,305.00
             184.00,305.00 184.00,304.00 184.00,304.00
             184.00,304.00 183.00,304.00 183.00,304.00 Z
           M 208.00,328.00
           C 208.00,328.00 209.00,329.00 209.00,329.00
             209.00,329.00 209.00,328.00 209.00,328.00
             209.00,328.00 208.00,328.00 208.00,328.00 Z
           M 402.00,329.00
           C 402.00,329.00 403.00,330.00 403.00,330.00
             403.00,330.00 403.00,329.00 403.00,329.00
             403.00,329.00 402.00,329.00 402.00,329.00 Z
           M 417.00,344.00
           C 417.00,344.00 418.00,345.00 418.00,345.00
             418.00,345.00 418.00,344.00 418.00,344.00
             418.00,344.00 417.00,344.00 417.00,344.00 Z
           M 427.00,353.00
           C 427.00,353.00 428.00,354.00 428.00,354.00
             428.00,354.00 428.00,353.00 428.00,353.00
             428.00,353.00 427.00,353.00 427.00,353.00 Z
           M 428.00,354.00
           C 428.00,354.00 429.00,355.00 429.00,355.00
             429.00,355.00 429.00,354.00 429.00,354.00
             429.00,354.00 428.00,354.00 428.00,354.00 Z
           M 432.00,358.00
           C 432.00,358.00 433.00,359.00 433.00,359.00
             433.00,359.00 433.00,358.00 433.00,358.00
             433.00,358.00 432.00,358.00 432.00,358.00 Z
           M 247.00,364.00
           C 247.00,364.00 248.00,365.00 248.00,365.00
             248.00,365.00 248.00,364.00 248.00,364.00
             248.00,364.00 247.00,364.00 247.00,364.00 Z
           M 438.00,364.00
           C 438.00,364.00 439.00,365.00 439.00,365.00
             439.00,365.00 439.00,364.00 439.00,364.00
             439.00,364.00 438.00,364.00 438.00,364.00 Z
           M 442.00,368.00
           C 442.00,368.00 443.00,369.00 443.00,369.00
             443.00,369.00 443.00,368.00 443.00,368.00
             443.00,368.00 442.00,368.00 442.00,368.00 Z
           M 257.00,374.00
           C 257.00,374.00 258.00,375.00 258.00,375.00
             258.00,375.00 258.00,374.00 258.00,374.00
             258.00,374.00 257.00,374.00 257.00,374.00 Z
           M 453.00,378.00
           C 453.00,378.00 454.00,379.00 454.00,379.00
             454.00,379.00 454.00,378.00 454.00,378.00
             454.00,378.00 453.00,378.00 453.00,378.00 Z
           M 268.00,384.00
           C 268.00,384.00 269.00,385.00 269.00,385.00
             269.00,385.00 269.00,384.00 269.00,384.00
             269.00,384.00 268.00,384.00 268.00,384.00 Z
           M 272.00,388.00
           C 272.00,388.00 273.00,389.00 273.00,389.00
             273.00,389.00 273.00,388.00 273.00,388.00
             273.00,388.00 272.00,388.00 272.00,388.00 Z
           M 273.00,389.00
           C 273.00,389.00 274.00,390.00 274.00,390.00
             274.00,390.00 274.00,389.00 274.00,389.00
             274.00,389.00 273.00,389.00 273.00,389.00 Z
           M 470.00,394.00
           C 470.00,394.00 469.00,395.00 469.00,395.00
             469.00,395.00 469.00,394.00 469.00,394.00
             469.00,394.00 470.00,394.00 470.00,394.00 Z
           M 282.00,398.00
           C 282.00,398.00 283.00,399.00 283.00,399.00
             283.00,399.00 283.00,398.00 283.00,398.00
             283.00,398.00 282.00,398.00 282.00,398.00 Z
           M 283.00,399.00
           C 283.00,399.00 284.00,400.00 284.00,400.00
             284.00,400.00 284.00,399.00 284.00,399.00
             284.00,399.00 283.00,399.00 283.00,399.00 Z
           M 287.00,403.00
           C 287.00,403.00 288.00,404.00 288.00,404.00
             288.00,404.00 288.00,403.00 288.00,403.00
             288.00,403.00 287.00,403.00 287.00,403.00 Z
           M 298.00,413.00
           C 298.00,413.00 299.00,414.00 299.00,414.00
             299.00,414.00 299.00,413.00 299.00,413.00
             299.00,413.00 298.00,413.00 298.00,413.00 Z" />
</svg>
