<?xml version="1.0" encoding="UTF-8" standalone="no"?>
<!DOCTYPE svg PUBLIC "-//W3C//DTD SVG 20010904//EN"
              "http://www.w3.org/TR/2001/REC-SVG-20010904/DTD/svg10.dtd">

<svg xmlns="http://www.w3.org/2000/svg"
     width="7.11022in" height="7.11022in"
     viewBox="0 0 512 512">
  <path id="Selection"
        fill="none" stroke="black" stroke-width="1"
        d="M 213.00,114.00
           C 213.00,114.00 212.00,112.00 212.00,112.00
             212.00,112.00 213.00,112.00 213.00,112.00
             213.00,112.00 216.00,118.00 216.00,118.00
             216.00,118.00 219.00,117.00 219.00,117.00
             219.00,117.00 220.00,118.00 220.00,118.00
             220.84,121.21 220.79,121.16 224.00,122.00
             224.00,122.00 225.00,123.00 225.00,123.00
             225.84,126.21 225.79,126.16 229.00,127.00
             229.00,127.00 230.00,128.00 230.00,128.00
             230.84,131.21 230.79,131.16 234.00,132.00
             234.00,132.00 235.00,133.00 235.00,133.00
             235.84,136.21 235.79,136.16 239.00,137.00
             239.00,137.00 238.00,139.00 238.00,139.00
             238.00,139.00 241.00,138.00 241.00,138.00
             241.00,138.00 245.48,143.66 245.48,143.66
             245.48,143.66 258.84,156.94 258.84,156.94
             258.84,156.94 264.00,161.00 264.00,161.00
             264.00,161.00 263.00,163.00 263.00,163.00
             263.00,163.00 266.00,162.00 266.00,162.00
             266.70,164.92 267.11,165.27 270.00,166.00
             270.00,166.00 271.00,167.00 271.00,167.00
             271.70,169.92 272.11,170.27 275.00,171.00
             275.00,171.00 276.00,172.00 276.00,172.00
             276.70,174.92 277.11,175.27 280.00,176.00
             280.00,176.00 281.00,177.00 281.00,177.00
             281.70,179.92 282.11,180.27 285.00,181.00
             285.00,181.00 286.00,182.00 286.00,182.00
             287.13,185.84 289.68,187.06 293.00,189.00
             293.00,189.00 292.00,187.00 292.00,187.00
             292.00,187.00 295.00,190.00 295.00,190.00
             295.00,190.00 293.00,189.00 293.00,189.00
             293.00,189.00 298.00,194.00 298.00,194.00
             298.00,194.00 297.00,192.00 297.00,192.00
             297.00,192.00 300.00,195.00 300.00,195.00
             300.00,195.00 298.00,194.00 298.00,194.00
             298.00,194.00 303.00,199.00 303.00,199.00
             303.00,199.00 302.00,197.00 302.00,197.00
             302.00,197.00 305.00,200.00 305.00,200.00
             305.00,200.00 303.00,199.00 303.00,199.00
             303.00,199.00 308.00,204.00 308.00,204.00
             308.00,204.00 307.00,202.00 307.00,202.00
             307.00,202.00 310.00,205.00 310.00,205.00
             310.00,205.00 308.00,204.00 308.00,204.00
             308.00,204.00 313.00,209.00 313.00,209.00
             313.00,209.00 312.00,207.00 312.00,207.00
             312.00,207.00 313.00,207.00 313.00,207.00
             313.00,207.00 316.00,213.00 316.00,213.00
             316.00,213.00 319.00,212.00 319.00,212.00
             319.00,212.00 320.00,213.00 320.00,213.00
             320.84,216.21 320.79,216.16 324.00,217.00
             324.00,217.00 325.00,218.00 325.00,218.00
             325.84,221.21 325.79,221.16 329.00,222.00
             329.00,222.00 330.00,223.00 330.00,223.00
             330.84,226.21 330.79,226.16 334.00,227.00
             334.00,227.00 335.00,228.00 335.00,228.00
             335.84,231.21 335.79,231.16 339.00,232.00
             339.00,232.00 338.00,234.00 338.00,234.00
             338.00,234.00 341.00,233.00 341.00,233.00
             341.00,233.00 345.48,238.66 345.48,238.66
             345.48,238.66 358.84,251.94 358.84,251.94
             358.84,251.94 364.00,256.00 364.00,256.00
             364.00,256.00 363.00,258.00 363.00,258.00
             363.00,258.00 366.00,257.00 366.00,257.00
             366.70,259.92 367.11,260.27 370.00,261.00
             370.00,261.00 370.00,266.00 370.00,266.00
             367.08,266.70 366.73,267.11 366.00,270.00
             362.14,270.49 360.38,272.11 360.00,276.00
             357.08,276.70 356.73,277.11 356.00,280.00
             356.00,280.00 355.00,281.00 355.00,281.00
             350.51,281.52 347.57,283.34 347.00,288.00
             347.00,288.00 346.00,290.00 346.00,290.00
             346.00,290.00 343.00,289.00 343.00,289.00
             343.00,289.00 344.00,291.00 344.00,291.00
             341.10,291.61 341.17,292.40 340.00,295.00
             336.84,295.77 335.77,296.84 335.00,300.00
             329.50,302.45 331.84,302.71 328.94,304.96
             325.78,307.41 321.36,306.32 321.00,314.00
             321.00,314.00 318.00,313.00 318.00,313.00
             318.00,313.00 319.00,315.00 319.00,315.00
             315.79,315.84 315.84,315.79 315.00,319.00
             310.80,319.98 309.98,320.80 309.00,325.00
             305.79,325.84 305.84,325.79 305.00,329.00
             305.00,329.00 304.00,330.00 304.00,330.00
             296.45,330.78 297.92,333.41 293.00,337.00
             293.00,337.00 292.00,340.00 292.00,340.00
             292.00,340.00 293.00,338.00 293.00,338.00
             293.00,338.00 288.00,343.00 288.00,343.00
             288.00,343.00 290.00,342.00 290.00,342.00
             290.00,342.00 290.00,343.00 290.00,343.00
             283.52,345.09 285.40,344.96 282.00,350.00
             282.00,350.00 283.00,348.00 283.00,348.00
             283.00,348.00 278.00,353.00 278.00,353.00
             278.00,353.00 280.00,352.00 280.00,352.00
             280.00,352.00 277.00,355.00 277.00,355.00
             277.00,355.00 278.00,353.00 278.00,353.00
             273.29,355.38 267.37,359.68 266.00,365.00
             266.00,365.00 265.00,366.00 265.00,366.00
             260.24,366.79 256.51,370.10 256.00,375.00
             256.00,375.00 255.00,376.00 255.00,376.00
             252.08,376.70 251.73,377.11 251.00,380.00
             246.76,380.22 245.99,380.87 245.00,385.00
             245.00,385.00 238.93,389.95 238.93,389.95
             238.93,389.95 233.40,393.11 233.40,393.11
             233.40,393.11 230.01,398.82 230.01,398.82
             230.01,398.82 225.00,405.00 225.00,405.00
             220.76,405.22 219.99,405.87 219.00,410.00
             215.79,410.84 215.84,410.79 215.00,414.00
             215.00,414.00 214.00,415.00 214.00,415.00
             214.00,415.00 207.00,416.00 207.00,416.00
             207.00,416.00 207.00,191.00 207.00,191.00
             207.00,191.00 207.00,132.00 207.00,132.00
             207.00,125.89 205.59,113.78 209.00,109.00
             209.00,109.00 213.00,114.00 213.00,114.00 Z
           M 18.00,112.00
           C 18.00,112.00 20.00,111.00 20.00,111.00
             20.00,111.00 21.00,112.00 21.00,112.00
             21.70,114.92 22.11,115.27 25.00,116.00
             25.00,116.00 26.00,117.00 26.00,117.00
             26.70,119.92 27.11,120.27 30.00,121.00
             30.00,121.00 31.00,122.00 31.00,122.00
             31.70,124.92 32.11,125.27 35.00,126.00
             35.00,126.00 36.00,128.00 36.00,128.00
             36.00,128.00 35.00,129.00 35.00,129.00
             35.00,129.00 39.00,128.00 39.00,128.00
             39.84,131.47 40.53,132.16 44.00,133.00
             44.77,136.16 45.84,137.23 49.00,138.00
             49.77,141.16 50.84,142.23 54.00,143.00
             54.84,146.47 55.53,147.16 59.00,148.00
             60.13,152.64 64.40,155.09 67.75,158.41
             67.75,158.41 89.01,178.45 89.01,178.45
             89.01,178.45 107.00,195.96 107.00,195.96
             107.00,195.96 148.08,235.59 148.08,235.59
             148.08,235.59 169.09,256.99 169.09,256.99
             171.23,259.22 175.83,262.59 175.95,265.75
             176.12,270.01 172.59,269.22 170.00,275.00
             165.76,275.22 164.99,275.87 164.00,280.00
             160.79,280.84 160.84,280.79 160.00,284.00
             160.00,284.00 159.00,285.00 159.00,285.00
             152.98,285.62 150.62,287.98 150.00,294.00
             150.00,294.00 149.00,295.00 149.00,295.00
             145.79,295.84 145.84,295.79 145.00,299.00
             139.64,299.28 139.96,301.22 137.00,305.00
             137.00,305.00 138.00,303.00 138.00,303.00
             138.00,303.00 133.00,308.00 133.00,308.00
             133.00,308.00 135.00,307.00 135.00,307.00
             135.00,307.00 132.00,310.00 132.00,310.00
             132.00,310.00 133.00,308.00 133.00,308.00
             126.77,311.15 126.15,311.77 123.00,318.00
             123.00,318.00 125.00,317.00 125.00,317.00
             125.00,317.00 122.00,320.00 122.00,320.00
             122.00,320.00 123.00,318.00 123.00,318.00
             123.00,318.00 120.00,323.00 120.00,323.00
             114.90,322.58 111.84,324.90 111.00,330.00
             111.00,330.00 110.00,331.00 110.00,331.00
             107.08,331.70 106.73,332.11 106.00,335.00
             101.72,335.09 100.04,336.73 100.00,341.00
             96.60,341.82 96.37,342.95 95.00,346.00
             87.30,346.75 87.34,351.18 84.50,354.44
             82.31,356.96 82.32,354.83 80.00,360.00
             80.00,360.00 76.00,358.00 76.00,358.00
             76.00,358.00 73.00,361.00 73.00,361.00
             73.00,361.00 75.00,365.00 75.00,365.00
             71.51,366.56 71.57,366.50 70.00,370.00
             64.45,370.28 61.21,373.72 60.00,379.00
             60.00,379.00 59.00,380.00 59.00,380.00
             55.79,380.84 55.84,380.79 55.00,384.00
             49.64,383.36 48.40,384.70 49.00,390.00
             45.79,390.84 45.84,390.79 45.00,394.00
             38.68,394.18 36.18,398.04 33.00,403.00
             33.00,403.00 35.00,402.00 35.00,402.00
             35.00,402.00 32.00,405.00 32.00,405.00
             32.00,405.00 33.00,403.00 33.00,403.00
             33.00,403.00 28.00,408.00 28.00,408.00
             28.00,408.00 30.00,407.00 30.00,407.00
             30.00,407.00 30.00,408.00 30.00,408.00
             21.18,408.74 25.24,409.10 22.00,415.00
             22.00,415.00 23.00,413.00 23.00,413.00
             23.00,413.00 20.00,418.00 20.00,418.00
             20.00,418.00 15.00,417.00 15.00,417.00
             15.00,417.00 15.68,399.00 15.68,399.00
             15.68,399.00 15.00,385.00 15.00,385.00
             15.00,385.00 15.68,374.00 15.68,374.00
             15.68,374.00 15.00,360.00 15.00,360.00
             15.00,360.00 15.68,349.00 15.68,349.00
             15.68,349.00 15.00,335.00 15.00,335.00
             15.00,335.00 15.68,324.00 15.68,324.00
             15.68,324.00 15.00,314.00 15.00,314.00
             15.00,314.00 15.68,299.00 15.68,299.00
             15.68,299.00 15.00,287.00 15.00,287.00
             15.00,287.00 15.68,274.00 15.68,274.00
             15.68,274.00 15.68,252.00 15.68,252.00
             15.68,252.00 15.00,237.00 15.00,237.00
             15.00,237.00 15.68,224.00 15.68,224.00
             15.68,224.00 15.68,202.00 15.68,202.00
             15.68,202.00 15.04,193.00 15.04,193.00
             15.04,193.00 15.68,177.00 15.68,177.00
             15.68,177.00 15.00,160.00 15.00,160.00
             15.00,160.00 15.68,149.00 15.68,149.00
             15.68,149.00 15.00,135.00 15.00,135.00
             15.00,135.00 15.68,124.00 15.68,124.00
             15.68,124.00 15.00,114.00 15.00,114.00
             15.00,114.00 15.00,110.00 15.00,110.00
             15.00,110.00 18.00,112.00 18.00,112.00 Z
           M 399.00,400.00
           C 399.00,400.00 399.66,384.00 399.66,384.00
             399.66,384.00 399.00,370.00 399.00,370.00
             399.00,370.00 399.66,359.00 399.66,359.00
             399.66,359.00 399.00,348.00 399.00,348.00
             399.00,348.00 399.66,334.00 399.66,334.00
             399.66,334.00 399.00,319.00 399.00,319.00
             399.00,319.00 399.66,309.00 399.66,309.00
             399.66,309.00 399.00,293.00 399.00,293.00
             399.00,293.00 399.66,284.00 399.66,284.00
             399.66,284.00 399.00,270.00 399.00,270.00
             399.00,270.00 399.66,259.00 399.66,259.00
             399.66,259.00 399.00,243.00 399.00,243.00
             399.00,243.00 399.66,234.00 399.66,234.00
             399.66,234.00 399.00,225.00 399.00,225.00
             399.00,225.00 399.00,220.00 399.00,220.00
             399.00,220.00 399.66,209.00 399.66,209.00
             399.66,209.00 399.00,199.00 399.00,199.00
             399.00,199.00 399.00,195.00 399.00,195.00
             399.00,195.00 399.66,184.00 399.66,184.00
             399.66,184.00 399.00,168.00 399.00,168.00
             399.00,168.00 399.66,159.00 399.66,159.00
             399.66,159.00 399.00,145.00 399.00,145.00
             399.00,145.00 399.66,134.00 399.66,134.00
             399.66,134.00 399.00,119.00 399.00,119.00
             399.01,117.10 398.85,114.14 400.02,112.56
             401.59,110.44 405.58,110.15 408.00,110.04
             408.00,110.04 427.00,110.68 427.00,110.68
             427.00,110.68 437.00,110.00 437.00,110.00
             437.00,110.00 452.00,110.68 452.00,110.68
             452.00,110.68 464.00,110.00 464.00,110.00
             473.48,110.01 471.65,111.36 482.00,110.00
             480.64,120.35 481.99,118.52 482.00,128.00
             482.00,128.00 481.32,143.00 481.32,143.00
             481.32,143.00 482.00,155.00 482.00,155.00
             482.00,155.00 481.32,168.00 481.32,168.00
             481.32,168.00 482.00,182.00 482.00,182.00
             482.00,182.00 481.32,193.00 481.32,193.00
             481.32,193.00 482.00,207.00 482.00,207.00
             482.00,207.00 481.32,218.00 481.32,218.00
             481.32,218.00 482.00,232.00 482.00,232.00
             482.00,232.00 481.32,243.00 481.32,243.00
             481.32,243.00 482.00,251.00 482.00,251.00
             482.00,251.00 481.32,268.00 481.32,268.00
             481.32,268.00 482.00,282.00 482.00,282.00
             482.00,282.00 481.32,293.00 481.32,293.00
             481.32,293.00 482.00,307.00 482.00,307.00
             482.00,307.00 481.32,318.00 481.32,318.00
             481.97,326.63 481.97,331.37 481.32,340.00
             481.32,340.00 482.00,355.00 482.00,355.00
             482.00,355.00 481.32,368.00 481.32,368.00
             481.32,368.00 482.00,382.00 482.00,382.00
             482.00,382.00 481.32,393.00 481.32,393.00
             481.32,393.00 482.00,407.00 482.00,407.00
             481.96,409.84 482.12,413.86 479.49,415.69
             474.83,418.92 460.77,415.89 455.00,416.32
             455.00,416.32 443.00,417.00 443.00,417.00
             443.00,417.00 430.00,416.32 430.00,416.32
             430.00,416.32 416.00,417.00 416.00,417.00
             406.10,416.88 408.90,414.85 398.00,418.00
             400.93,406.95 399.12,409.71 399.00,400.00 Z
           M 19.00,112.00
           C 19.00,112.00 20.00,113.00 20.00,113.00
             20.00,113.00 20.00,112.00 20.00,112.00
             20.00,112.00 19.00,112.00 19.00,112.00 Z
           M 24.00,117.00
           C 24.00,117.00 25.00,118.00 25.00,118.00
             25.00,118.00 25.00,117.00 25.00,117.00
             25.00,117.00 24.00,117.00 24.00,117.00 Z
           M 218.00,118.00
           C 218.00,118.00 219.00,119.00 219.00,119.00
             219.00,119.00 219.00,118.00 219.00,118.00
             219.00,118.00 218.00,118.00 218.00,118.00 Z
           M 29.00,122.00
           C 29.00,122.00 30.00,123.00 30.00,123.00
             30.00,123.00 30.00,122.00 30.00,122.00
             30.00,122.00 29.00,122.00 29.00,122.00 Z
           M 223.00,123.00
           C 223.00,123.00 224.00,124.00 224.00,124.00
             224.00,124.00 224.00,123.00 224.00,123.00
             224.00,123.00 223.00,123.00 223.00,123.00 Z
           M 34.00,127.00
           C 34.00,127.00 35.00,128.00 35.00,128.00
             35.00,128.00 35.00,127.00 35.00,127.00
             35.00,127.00 34.00,127.00 34.00,127.00 Z
           M 228.00,128.00
           C 228.00,128.00 229.00,129.00 229.00,129.00
             229.00,129.00 229.00,128.00 229.00,128.00
             229.00,128.00 228.00,128.00 228.00,128.00 Z
           M 233.00,133.00
           C 233.00,133.00 234.00,134.00 234.00,134.00
             234.00,134.00 234.00,133.00 234.00,133.00
             234.00,133.00 233.00,133.00 233.00,133.00 Z
           M 243.00,142.00
           C 243.00,142.00 244.00,143.00 244.00,143.00
             244.00,143.00 244.00,142.00 244.00,142.00
             244.00,142.00 243.00,142.00 243.00,142.00 Z
           M 244.00,143.00
           C 244.00,143.00 245.00,144.00 245.00,144.00
             245.00,144.00 245.00,143.00 245.00,143.00
             245.00,143.00 244.00,143.00 244.00,143.00 Z
           M 248.00,147.00
           C 248.00,147.00 249.00,148.00 249.00,148.00
             249.00,148.00 249.00,147.00 249.00,147.00
             249.00,147.00 248.00,147.00 248.00,147.00 Z
           M 249.00,148.00
           C 249.00,148.00 250.00,149.00 250.00,149.00
             250.00,149.00 250.00,148.00 250.00,148.00
             250.00,148.00 249.00,148.00 249.00,148.00 Z
           M 253.00,152.00
           C 253.00,152.00 254.00,153.00 254.00,153.00
             254.00,153.00 254.00,152.00 254.00,152.00
             254.00,152.00 253.00,152.00 253.00,152.00 Z
           M 254.00,153.00
           C 254.00,153.00 255.00,154.00 255.00,154.00
             255.00,154.00 255.00,153.00 255.00,153.00
             255.00,153.00 254.00,153.00 254.00,153.00 Z
           M 258.00,157.00
           C 258.00,157.00 259.00,158.00 259.00,158.00
             259.00,158.00 259.00,157.00 259.00,157.00
             259.00,157.00 258.00,157.00 258.00,157.00 Z
           M 259.00,158.00
           C 259.00,158.00 260.00,159.00 260.00,159.00
             260.00,159.00 260.00,158.00 260.00,158.00
             260.00,158.00 259.00,158.00 259.00,158.00 Z
           M 269.00,167.00
           C 269.00,167.00 270.00,168.00 270.00,168.00
             270.00,168.00 270.00,167.00 270.00,167.00
             270.00,167.00 269.00,167.00 269.00,167.00 Z
           M 274.00,172.00
           C 274.00,172.00 275.00,173.00 275.00,173.00
             275.00,173.00 275.00,172.00 275.00,172.00
             275.00,172.00 274.00,172.00 274.00,172.00 Z
           M 279.00,177.00
           C 279.00,177.00 280.00,178.00 280.00,178.00
             280.00,178.00 280.00,177.00 280.00,177.00
             280.00,177.00 279.00,177.00 279.00,177.00 Z
           M 284.00,182.00
           C 284.00,182.00 285.00,183.00 285.00,183.00
             285.00,183.00 285.00,182.00 285.00,182.00
             285.00,182.00 284.00,182.00 284.00,182.00 Z
           M 318.00,213.00
           C 318.00,213.00 319.00,214.00 319.00,214.00
             319.00,214.00 319.00,213.00 319.00,213.00
             319.00,213.00 318.00,213.00 318.00,213.00 Z
           M 323.00,218.00
           C 323.00,218.00 324.00,219.00 324.00,219.00
             324.00,219.00 324.00,218.00 324.00,218.00
             324.00,218.00 323.00,218.00 323.00,218.00 Z
           M 328.00,223.00
           C 328.00,223.00 329.00,224.00 329.00,224.00
             329.00,224.00 329.00,223.00 329.00,223.00
             329.00,223.00 328.00,223.00 328.00,223.00 Z
           M 333.00,228.00
           C 333.00,228.00 334.00,229.00 334.00,229.00
             334.00,229.00 334.00,228.00 334.00,228.00
             334.00,228.00 333.00,228.00 333.00,228.00 Z
           M 343.00,237.00
           C 343.00,237.00 344.00,238.00 344.00,238.00
             344.00,238.00 344.00,237.00 344.00,237.00
             344.00,237.00 343.00,237.00 343.00,237.00 Z
           M 344.00,238.00
           C 344.00,238.00 345.00,239.00 345.00,239.00
             345.00,239.00 345.00,238.00 345.00,238.00
             345.00,238.00 344.00,238.00 344.00,238.00 Z
           M 348.00,242.00
           C 348.00,242.00 349.00,243.00 349.00,243.00
             349.00,243.00 349.00,242.00 349.00,242.00
             349.00,242.00 348.00,242.00 348.00,242.00 Z
           M 349.00,243.00
           C 349.00,243.00 350.00,244.00 350.00,244.00
             350.00,244.00 350.00,243.00 350.00,243.00
             350.00,243.00 349.00,243.00 349.00,243.00 Z
           M 353.00,247.00
           C 353.00,247.00 354.00,248.00 354.00,248.00
             354.00,248.00 354.00,247.00 354.00,247.00
             354.00,247.00 353.00,247.00 353.00,247.00 Z
           M 354.00,248.00
           C 354.00,248.00 355.00,249.00 355.00,249.00
             355.00,249.00 355.00,248.00 355.00,248.00
             355.00,248.00 354.00,248.00 354.00,248.00 Z
           M 358.00,252.00
           C 358.00,252.00 359.00,253.00 359.00,253.00
             359.00,253.00 359.00,252.00 359.00,252.00
             359.00,252.00 358.00,252.00 358.00,252.00 Z
           M 359.00,253.00
           C 359.00,253.00 360.00,254.00 360.00,254.00
             360.00,254.00 360.00,253.00 360.00,253.00
             360.00,253.00 359.00,253.00 359.00,253.00 Z
           M 174.00,268.00
           C 174.00,268.00 175.00,269.00 175.00,269.00
             175.00,269.00 175.00,268.00 175.00,268.00
             175.00,268.00 174.00,268.00 174.00,268.00 Z
           M 173.00,269.00
           C 173.00,269.00 174.00,270.00 174.00,270.00
             174.00,270.00 174.00,269.00 174.00,269.00
             174.00,269.00 173.00,269.00 173.00,269.00 Z
           M 169.00,273.00
           C 169.00,273.00 170.00,274.00 170.00,274.00
             170.00,274.00 170.00,273.00 170.00,273.00
             170.00,273.00 169.00,273.00 169.00,273.00 Z
           M 354.00,279.00
           C 354.00,279.00 355.00,280.00 355.00,280.00
             355.00,280.00 355.00,279.00 355.00,279.00
             355.00,279.00 354.00,279.00 354.00,279.00 Z
           M 158.00,283.00
           C 158.00,283.00 159.00,284.00 159.00,284.00
             159.00,284.00 159.00,283.00 159.00,283.00
             159.00,283.00 158.00,283.00 158.00,283.00 Z
           M 148.00,293.00
           C 148.00,293.00 149.00,294.00 149.00,294.00
             149.00,294.00 149.00,293.00 149.00,293.00
             149.00,293.00 148.00,293.00 148.00,293.00 Z
           M 339.00,293.00
           C 339.00,293.00 340.00,294.00 340.00,294.00
             340.00,294.00 340.00,293.00 340.00,293.00
             340.00,293.00 339.00,293.00 339.00,293.00 Z
           M 333.00,299.00
           C 333.00,299.00 334.00,300.00 334.00,300.00
             334.00,300.00 334.00,299.00 334.00,299.00
             334.00,299.00 333.00,299.00 333.00,299.00 Z
           M 329.00,303.00
           C 329.00,303.00 330.00,304.00 330.00,304.00
             330.00,304.00 330.00,303.00 330.00,303.00
             330.00,303.00 329.00,303.00 329.00,303.00 Z
           M 328.00,304.00
           C 328.00,304.00 329.00,305.00 329.00,305.00
             329.00,305.00 329.00,304.00 329.00,304.00
             329.00,304.00 328.00,304.00 328.00,304.00 Z
           M 303.00,328.00
           C 303.00,328.00 304.00,329.00 304.00,329.00
             304.00,329.00 304.00,328.00 304.00,328.00
             304.00,328.00 303.00,328.00 303.00,328.00 Z
           M 109.00,329.00
           C 109.00,329.00 110.00,330.00 110.00,330.00
             110.00,330.00 110.00,329.00 110.00,329.00
             110.00,329.00 109.00,329.00 109.00,329.00 Z
           M 94.00,344.00
           C 94.00,344.00 95.00,345.00 95.00,345.00
             95.00,345.00 95.00,344.00 95.00,344.00
             95.00,344.00 94.00,344.00 94.00,344.00 Z
           M 84.00,353.00
           C 84.00,353.00 85.00,354.00 85.00,354.00
             85.00,354.00 85.00,353.00 85.00,353.00
             85.00,353.00 84.00,353.00 84.00,353.00 Z
           M 83.00,354.00
           C 83.00,354.00 84.00,355.00 84.00,355.00
             84.00,355.00 84.00,354.00 84.00,354.00
             84.00,354.00 83.00,354.00 83.00,354.00 Z
           M 79.00,358.00
           C 79.00,358.00 80.00,359.00 80.00,359.00
             80.00,359.00 80.00,358.00 80.00,358.00
             80.00,358.00 79.00,358.00 79.00,358.00 Z
           M 73.00,364.00
           C 73.00,364.00 74.00,365.00 74.00,365.00
             74.00,365.00 74.00,364.00 74.00,364.00
             74.00,364.00 73.00,364.00 73.00,364.00 Z
           M 264.00,364.00
           C 264.00,364.00 265.00,365.00 265.00,365.00
             265.00,365.00 265.00,364.00 265.00,364.00
             265.00,364.00 264.00,364.00 264.00,364.00 Z
           M 69.00,368.00
           C 69.00,368.00 70.00,369.00 70.00,369.00
             70.00,369.00 70.00,368.00 70.00,368.00
             70.00,368.00 69.00,368.00 69.00,368.00 Z
           M 254.00,374.00
           C 254.00,374.00 255.00,375.00 255.00,375.00
             255.00,375.00 255.00,374.00 255.00,374.00
             255.00,374.00 254.00,374.00 254.00,374.00 Z
           M 58.00,378.00
           C 58.00,378.00 59.00,379.00 59.00,379.00
             59.00,379.00 59.00,378.00 59.00,378.00
             59.00,378.00 58.00,378.00 58.00,378.00 Z
           M 243.00,384.00
           C 243.00,384.00 244.00,385.00 244.00,385.00
             244.00,385.00 244.00,384.00 244.00,384.00
             244.00,384.00 243.00,384.00 243.00,384.00 Z
           M 239.00,388.00
           C 239.00,388.00 240.00,389.00 240.00,389.00
             240.00,389.00 240.00,388.00 240.00,388.00
             240.00,388.00 239.00,388.00 239.00,388.00 Z
           M 238.00,389.00
           C 238.00,389.00 239.00,390.00 239.00,390.00
             239.00,390.00 239.00,389.00 239.00,389.00
             239.00,389.00 238.00,389.00 238.00,389.00 Z
           M 43.00,394.00
           C 43.00,394.00 42.00,395.00 42.00,395.00
             42.00,395.00 42.00,394.00 42.00,394.00
             42.00,394.00 43.00,394.00 43.00,394.00 Z
           M 229.00,398.00
           C 229.00,398.00 230.00,399.00 230.00,399.00
             230.00,399.00 230.00,398.00 230.00,398.00
             230.00,398.00 229.00,398.00 229.00,398.00 Z
           M 228.00,399.00
           C 228.00,399.00 229.00,400.00 229.00,400.00
             229.00,400.00 229.00,399.00 229.00,399.00
             229.00,399.00 228.00,399.00 228.00,399.00 Z
           M 224.00,403.00
           C 224.00,403.00 225.00,404.00 225.00,404.00
             225.00,404.00 225.00,403.00 225.00,403.00
             225.00,403.00 224.00,403.00 224.00,403.00 Z
           M 213.00,413.00
           C 213.00,413.00 214.00,414.00 214.00,414.00
             214.00,414.00 214.00,413.00 214.00,413.00
             214.00,413.00 213.00,413.00 213.00,413.00 Z" />
</svg>
