<?xml version="1.0" encoding="UTF-8" standalone="no"?>
<!DOCTYPE svg PUBLIC "-//W3C//DTD SVG 20010904//EN"
              "http://www.w3.org/TR/2001/REC-SVG-20010904/DTD/svg10.dtd">

<svg xmlns="http://www.w3.org/2000/svg"
     width="5.68938in" height="5.68938in"
     viewBox="0 0 512 512">
  <path id="Selection"
        fill="none" stroke="black" stroke-width="1"
        d="M 250.00,40.58
           C 250.00,40.58 271.00,58.95 271.00,58.95
             271.00,58.95 310.00,93.16 310.00,93.16
             310.00,93.16 342.00,121.00 342.00,121.00
             342.00,121.00 342.00,123.00 342.00,123.00
             342.00,123.00 313.00,147.85 313.00,147.85
             313.00,147.85 268.00,187.00 268.00,187.00
             268.00,187.00 238.00,212.00 238.00,212.00
             238.00,212.00 238.00,154.00 238.00,154.00
             221.00,159.62 215.03,159.76 199.00,170.52
             170.86,189.40 152.62,223.00 153.00,257.00
             153.16,271.15 156.89,285.06 162.43,298.00
             164.46,302.74 166.17,305.64 168.81,310.00
             169.91,311.82 172.08,314.82 171.90,316.99
             171.64,320.01 164.39,325.67 162.00,328.00
             162.00,328.00 138.00,350.09 138.00,350.09
             133.36,354.42 130.25,359.16 124.00,361.00
             115.22,346.96 110.70,342.15 103.31,326.00
             95.58,309.12 89.03,284.60 89.00,266.00
             89.00,266.00 89.00,243.00 89.00,243.00
             89.10,234.50 91.55,222.34 93.63,214.00
             105.82,165.02 139.92,123.50 186.00,102.63
             200.50,96.06 222.07,89.14 238.00,89.00
             238.00,89.00 238.00,32.00 238.00,32.00
             243.74,33.96 245.52,36.70 250.00,40.58 Z
           M 311.00,342.91
           C 340.22,324.07 359.39,289.90 359.00,255.00
             358.84,240.79 355.13,226.99 349.57,214.00
             347.54,209.26 345.83,206.36 343.19,202.00
             342.09,200.18 339.92,197.18 340.10,195.01
             340.35,192.05 348.56,185.38 351.00,183.01
             351.00,183.01 373.00,162.91 373.00,162.91
             378.22,158.05 381.23,153.89 388.00,151.00
             388.00,151.00 401.13,171.00 401.13,171.00
             412.61,191.12 422.72,220.68 423.00,244.00
             423.28,268.40 423.42,280.99 416.57,305.00
             404.22,348.30 372.13,386.18 332.00,406.25
             316.19,414.15 291.72,422.84 274.00,423.00
             274.00,436.07 274.94,469.15 273.00,480.00
             266.75,477.05 253.99,464.49 248.00,459.28
             248.00,459.28 195.00,412.84 195.00,412.84
             195.00,412.84 177.00,396.95 177.00,396.95
             175.38,395.50 171.20,392.28 171.20,390.00
             171.20,387.72 175.38,384.50 177.00,383.05
             177.00,383.05 195.00,367.42 195.00,367.42
             195.00,367.42 245.00,323.95 245.00,323.95
             251.17,318.47 267.72,302.95 274.00,300.00
             274.00,300.00 274.00,358.00 274.00,358.00
             289.90,352.74 295.71,352.77 311.00,342.91 Z" />
</svg>
