<?xml version="1.0" encoding="UTF-8" standalone="no"?>
<!DOCTYPE svg PUBLIC "-//W3C//DTD SVG 20010904//EN"
              "http://www.w3.org/TR/2001/REC-SVG-20010904/DTD/svg10.dtd">

<svg xmlns="http://www.w3.org/2000/svg"
     width="1.77756in" height="1.77756in"
     viewBox="0 0 128 128">
  <path id="Selection"
        fill="none" stroke="black" stroke-width="1"
        d="M 112.00,32.00
           C 112.00,32.00 112.00,43.00 112.00,43.00
             112.00,43.00 16.00,43.00 16.00,43.00
             16.00,43.00 16.00,32.00 16.00,32.00
             16.00,32.00 112.00,32.00 112.00,32.00 Z
           M 112.00,58.00
           C 112.00,58.00 112.00,70.00 112.00,70.00
             112.00,70.00 16.00,70.00 16.00,70.00
             16.00,70.00 16.00,58.00 16.00,58.00
             16.00,58.00 112.00,58.00 112.00,58.00 Z
           M 112.00,85.00
           C 112.00,85.00 112.00,96.00 112.00,96.00
             112.00,96.00 16.00,96.00 16.00,96.00
             16.00,96.00 16.00,85.00 16.00,85.00
             16.00,85.00 112.00,85.00 112.00,85.00 Z" />
</svg>
