<?xml version="1.0" encoding="UTF-8" standalone="no"?>
<!DOCTYPE svg PUBLIC "-//W3C//DTD SVG 20010904//EN"
              "http://www.w3.org/TR/2001/REC-SVG-20010904/DTD/svg10.dtd">

<svg xmlns="http://www.w3.org/2000/svg"
     width="5.68889in" height="5.68889in"
     viewBox="0 0 512 512">
  <path id="Selection"
        fill="none" stroke="black" stroke-width="1"
        d="M 251.00,141.00
           C 251.00,141.00 250.00,155.00 250.00,155.00
             250.00,155.00 250.00,272.00 250.00,272.00
             250.00,272.00 250.00,327.00 250.00,327.00
             250.00,327.00 251.00,371.00 251.00,371.00
             248.21,371.00 243.85,371.37 241.42,370.01
             235.07,366.44 228.19,356.31 219.00,358.00
             217.10,351.70 209.55,346.57 203.00,348.00
             201.73,343.96 201.24,343.43 197.00,344.00
             195.07,337.74 187.49,332.81 181.00,334.00
             179.73,329.96 179.24,329.43 175.00,330.00
             173.07,323.74 165.49,318.81 159.00,320.00
             157.81,315.88 157.33,314.80 153.00,316.00
             150.52,307.76 141.62,306.04 134.00,306.00
             134.00,306.00 97.00,307.00 97.00,307.00
             97.00,307.00 98.00,293.00 98.00,293.00
             98.05,263.94 99.34,233.88 97.00,205.00
             97.00,205.00 115.00,205.00 115.00,205.00
             127.20,205.02 145.91,210.63 153.00,197.00
             156.76,196.37 157.11,196.35 159.00,193.00
             165.37,192.32 171.99,188.80 175.00,183.00
             178.76,182.37 179.11,182.35 181.00,179.00
             187.64,178.53 193.98,175.07 197.00,169.00
             197.00,169.00 203.00,169.00 203.00,169.00
             203.00,169.00 203.00,165.00 203.00,165.00
             209.64,164.53 215.98,161.07 219.00,155.00
             227.86,154.37 233.56,147.67 242.00,145.00
             242.00,145.00 241.00,141.00 241.00,141.00
             241.00,141.00 251.00,141.00 251.00,141.00 Z" />
</svg>
