<?xml version="1.0" encoding="UTF-8" standalone="no"?>
<!DOCTYPE svg PUBLIC "-//W3C//DTD SVG 20010904//EN"
              "http://www.w3.org/TR/2001/REC-SVG-20010904/DTD/svg10.dtd">

<svg xmlns="http://www.w3.org/2000/svg"
     width="7.11022in" height="7.11022in"
     viewBox="0 0 512 512">
  <path id="Selection"
        fill="none" stroke="black" stroke-width="1"
        d="M 106.00,55.00
           C 106.00,55.00 125.00,55.00 125.00,55.00
             125.00,55.00 185.00,55.00 185.00,55.00
             197.60,55.03 197.93,60.69 207.00,66.00
             207.00,66.00 206.00,69.00 206.00,69.00
             206.00,69.00 210.00,68.00 210.00,68.00
             210.00,68.00 211.00,83.00 211.00,83.00
             211.00,83.00 211.00,109.00 211.00,109.00
             211.00,109.00 211.00,208.00 211.00,208.00
             211.00,208.00 211.00,372.00 211.00,372.00
             211.00,372.00 211.00,430.00 211.00,430.00
             211.00,430.00 210.00,444.00 210.00,444.00
             210.00,444.00 205.91,443.00 205.91,443.00
             206.00,443.90 206.41,444.12 205.91,445.54
             204.52,448.61 195.12,455.30 191.91,456.42
             189.91,457.12 187.13,457.00 185.00,457.00
             185.00,457.00 123.00,457.00 123.00,457.00
             119.29,457.00 101.46,457.44 99.31,456.40
             97.53,455.54 97.56,454.61 97.00,453.00
             97.00,453.00 83.00,445.00 83.00,445.00
             83.00,445.00 81.00,432.00 81.00,432.00
             81.00,432.00 81.00,371.00 81.00,371.00
             81.00,371.00 81.00,256.00 81.00,256.00
             81.00,256.00 81.00,141.00 81.00,141.00
             81.00,141.00 81.00,80.00 81.00,80.00
             81.00,80.00 83.00,67.00 83.00,67.00
             83.00,67.00 97.00,59.00 97.00,59.00
             98.71,54.13 101.36,55.01 106.00,55.00 Z
           M 306.09,66.46
           C 307.48,63.39 316.88,56.70 320.09,55.58
             322.09,54.88 324.87,55.00 327.00,55.00
             327.00,55.00 389.00,55.00 389.00,55.00
             392.71,55.00 410.54,54.56 412.69,55.60
             414.47,56.46 414.44,57.39 415.00,59.00
             415.00,59.00 429.00,67.00 429.00,67.00
             429.00,67.00 431.00,80.00 431.00,80.00
             431.00,80.00 431.00,141.00 431.00,141.00
             431.00,141.00 431.00,256.00 431.00,256.00
             431.00,256.00 431.00,371.00 431.00,371.00
             431.00,371.00 431.00,432.00 431.00,432.00
             431.00,432.00 429.00,445.00 429.00,445.00
             429.00,445.00 415.00,453.00 415.00,453.00
             413.29,457.87 410.64,456.99 406.00,457.00
             406.00,457.00 387.00,457.00 387.00,457.00
             387.00,457.00 327.00,457.00 327.00,457.00
             314.40,456.97 314.07,451.31 305.00,446.00
             305.00,446.00 306.00,443.00 306.00,443.00
             306.00,443.00 302.00,444.00 302.00,444.00
             302.00,444.00 301.00,431.00 301.00,431.00
             301.00,431.00 301.00,372.00 301.00,372.00
             301.00,372.00 301.00,208.00 301.00,208.00
             301.00,208.00 301.00,109.00 301.00,109.00
             301.00,109.00 301.00,83.00 301.00,83.00
             301.00,83.00 302.00,68.00 302.00,68.00
             302.00,68.00 306.09,69.00 306.09,69.00
             306.00,68.10 305.59,67.88 306.09,66.46 Z
           M 91.00,58.00
           C 91.00,58.00 90.00,59.00 90.00,59.00
             90.00,59.00 90.00,58.00 90.00,58.00
             90.00,58.00 91.00,58.00 91.00,58.00 Z
           M 422.00,58.00
           C 422.00,58.00 421.00,59.00 421.00,59.00
             421.00,59.00 421.00,58.00 421.00,58.00
             421.00,58.00 422.00,58.00 422.00,58.00 Z
           M 89.00,60.00
           C 89.00,60.00 88.00,61.00 88.00,61.00
             88.00,61.00 88.00,60.00 88.00,60.00
             88.00,60.00 89.00,60.00 89.00,60.00 Z
           M 204.00,60.00
           C 204.00,60.00 203.00,61.00 203.00,61.00
             203.00,61.00 203.00,60.00 203.00,60.00
             203.00,60.00 204.00,60.00 204.00,60.00 Z
           M 309.00,60.00
           C 309.00,60.00 308.00,61.00 308.00,61.00
             308.00,61.00 308.00,60.00 308.00,60.00
             308.00,60.00 309.00,60.00 309.00,60.00 Z
           M 424.00,60.00
           C 424.00,60.00 423.00,61.00 423.00,61.00
             423.00,61.00 423.00,60.00 423.00,60.00
             423.00,60.00 424.00,60.00 424.00,60.00 Z
           M 87.00,62.00
           C 87.00,62.00 86.00,63.00 86.00,63.00
             86.00,63.00 86.00,62.00 86.00,62.00
             86.00,62.00 87.00,62.00 87.00,62.00 Z
           M 426.00,62.00
           C 426.00,62.00 425.00,63.00 425.00,63.00
             425.00,63.00 425.00,62.00 425.00,62.00
             425.00,62.00 426.00,62.00 426.00,62.00 Z
           M 87.00,449.00
           C 87.00,449.00 86.00,450.00 86.00,450.00
             86.00,450.00 86.00,449.00 86.00,449.00
             86.00,449.00 87.00,449.00 87.00,449.00 Z
           M 426.00,449.00
           C 426.00,449.00 425.00,450.00 425.00,450.00
             425.00,450.00 425.00,449.00 425.00,449.00
             425.00,449.00 426.00,449.00 426.00,449.00 Z
           M 89.00,451.00
           C 89.00,451.00 88.00,452.00 88.00,452.00
             88.00,452.00 88.00,451.00 88.00,451.00
             88.00,451.00 89.00,451.00 89.00,451.00 Z
           M 204.00,451.00
           C 204.00,451.00 203.00,452.00 203.00,452.00
             203.00,452.00 203.00,451.00 203.00,451.00
             203.00,451.00 204.00,451.00 204.00,451.00 Z
           M 309.00,451.00
           C 309.00,451.00 308.00,452.00 308.00,452.00
             308.00,452.00 308.00,451.00 308.00,451.00
             308.00,451.00 309.00,451.00 309.00,451.00 Z
           M 424.00,451.00
           C 424.00,451.00 423.00,452.00 423.00,452.00
             423.00,452.00 423.00,451.00 423.00,451.00
             423.00,451.00 424.00,451.00 424.00,451.00 Z
           M 91.00,453.00
           C 91.00,453.00 90.00,454.00 90.00,454.00
             90.00,454.00 90.00,453.00 90.00,453.00
             90.00,453.00 91.00,453.00 91.00,453.00 Z
           M 422.00,453.00
           C 422.00,453.00 421.00,454.00 421.00,454.00
             421.00,454.00 421.00,453.00 421.00,453.00
             421.00,453.00 422.00,453.00 422.00,453.00 Z" />
</svg>
