<?xml version="1.0" encoding="UTF-8" standalone="no"?>
<!DOCTYPE svg PUBLIC "-//W3C//DTD SVG 20010904//EN"
              "http://www.w3.org/TR/2001/REC-SVG-20010904/DTD/svg10.dtd">

<svg xmlns="http://www.w3.org/2000/svg"
     width="7.11022in" height="7.11022in"
     viewBox="0 0 512 512">
  <path id="Selection"
        fill="none" stroke="black" stroke-width="1"
        d="M 404.00,82.00
           C 405.28,87.58 410.42,92.72 416.00,94.00
             416.00,94.00 415.00,97.00 415.00,97.00
             415.00,97.00 420.00,96.00 420.00,96.00
             421.38,101.99 434.01,114.62 440.00,116.00
             440.00,116.00 439.00,119.00 439.00,119.00
             439.00,119.00 444.00,118.00 444.00,118.00
             444.00,118.00 445.47,122.00 445.47,122.00
             445.47,122.00 463.00,139.14 463.00,139.14
             463.00,139.14 466.00,140.00 466.00,140.00
             466.00,140.00 465.00,143.00 465.00,143.00
             465.00,143.00 470.00,142.00 470.00,142.00
             471.28,147.58 476.42,152.72 482.00,154.00
             482.00,154.00 482.00,164.00 482.00,164.00
             477.80,164.98 476.98,165.80 476.00,170.00
             476.00,170.00 471.00,169.00 471.00,169.00
             471.00,169.00 472.00,172.00 472.00,172.00
             472.00,172.00 468.00,173.47 468.00,173.47
             468.00,173.47 450.86,191.00 450.86,191.00
             450.86,191.00 450.00,194.00 450.00,194.00
             450.00,194.00 445.00,193.00 445.00,193.00
             445.00,193.00 446.00,196.00 446.00,196.00
             440.01,197.38 427.38,210.01 426.00,216.00
             426.00,216.00 421.00,215.00 421.00,215.00
             421.00,215.00 422.00,218.00 422.00,218.00
             416.08,219.36 405.36,230.08 404.00,236.00
             404.00,236.00 398.00,236.00 398.00,236.00
             399.92,228.10 399.00,197.21 399.00,187.00
             399.00,187.00 343.00,187.00 343.00,187.00
             343.00,187.00 344.00,190.00 344.00,190.00
             344.00,190.00 339.00,189.00 339.00,189.00
             339.00,189.00 340.00,192.00 340.00,192.00
             340.00,192.00 335.00,191.00 335.00,191.00
             335.00,191.00 336.00,194.00 336.00,194.00
             330.08,195.36 319.36,206.08 318.00,212.00
             318.00,212.00 315.00,211.00 315.00,211.00
             315.00,211.00 316.00,216.00 316.00,216.00
             312.79,216.84 312.84,216.79 312.00,220.00
             312.00,220.00 309.00,219.00 309.00,219.00
             309.00,219.00 310.00,224.00 310.00,224.00
             310.00,224.00 307.00,223.00 307.00,223.00
             307.00,223.00 308.00,226.00 308.00,226.00
             308.00,226.00 305.00,225.00 305.00,225.00
             305.00,225.00 306.00,230.00 306.00,230.00
             306.00,230.00 303.00,229.00 303.00,229.00
             303.00,229.00 304.00,232.00 304.00,232.00
             304.00,232.00 301.00,231.00 301.00,231.00
             301.00,231.00 302.00,236.00 302.00,236.00
             302.00,236.00 299.00,235.00 299.00,235.00
             299.00,235.00 300.00,238.00 300.00,238.00
             300.00,238.00 297.00,237.00 297.00,237.00
             297.00,237.00 298.00,242.00 298.00,242.00
             298.00,242.00 295.00,241.00 295.00,241.00
             295.00,241.00 296.00,246.00 296.00,246.00
             296.00,246.00 293.00,245.00 293.00,245.00
             293.00,245.00 294.00,248.00 294.00,248.00
             294.00,248.00 291.00,247.00 291.00,247.00
             291.00,247.00 292.00,252.00 292.00,252.00
             292.00,252.00 289.00,251.00 289.00,251.00
             289.00,251.00 290.00,256.00 290.00,256.00
             290.00,256.00 287.00,255.00 287.00,255.00
             287.00,255.00 288.00,258.00 288.00,258.00
             288.00,258.00 285.00,257.00 285.00,257.00
             285.00,257.00 286.00,262.00 286.00,262.00
             286.00,262.00 283.00,261.00 283.00,261.00
             283.00,261.00 284.00,266.00 284.00,266.00
             284.00,266.00 281.00,265.00 281.00,265.00
             281.00,265.00 282.00,268.00 282.00,268.00
             282.00,268.00 279.00,267.00 279.00,267.00
             279.00,267.00 280.00,272.00 280.00,272.00
             280.00,272.00 277.00,271.00 277.00,271.00
             277.00,271.00 278.00,276.00 278.00,276.00
             278.00,276.00 275.00,275.00 275.00,275.00
             275.00,275.00 276.00,278.00 276.00,278.00
             276.00,278.00 273.00,277.00 273.00,277.00
             273.00,277.00 274.00,282.00 274.00,282.00
             274.00,282.00 271.00,281.00 271.00,281.00
             271.00,281.00 272.00,286.00 272.00,286.00
             272.00,286.00 269.00,285.00 269.00,285.00
             269.00,285.00 270.00,288.00 270.00,288.00
             270.00,288.00 267.00,287.00 267.00,287.00
             267.00,287.00 268.00,292.00 268.00,292.00
             268.00,292.00 265.00,291.00 265.00,291.00
             265.00,291.00 266.00,294.00 266.00,294.00
             266.00,294.00 263.00,293.00 263.00,293.00
             263.00,293.00 264.00,298.00 264.00,298.00
             264.00,298.00 261.00,297.00 261.00,297.00
             261.00,297.00 262.00,300.00 262.00,300.00
             262.00,300.00 259.00,299.00 259.00,299.00
             259.00,299.00 260.00,304.00 260.00,304.00
             260.00,304.00 257.00,303.00 257.00,303.00
             257.00,303.00 258.00,306.00 258.00,306.00
             258.00,306.00 255.00,305.00 255.00,305.00
             255.00,305.00 256.00,310.00 256.00,310.00
             256.00,310.00 253.00,309.00 253.00,309.00
             253.00,309.00 254.00,312.00 254.00,312.00
             254.00,312.00 251.00,311.00 251.00,311.00
             251.00,311.00 252.00,316.00 252.00,316.00
             248.79,316.84 248.84,316.79 248.00,320.00
             248.00,320.00 245.00,319.00 245.00,319.00
             245.00,319.00 246.00,324.00 246.00,324.00
             241.80,324.98 240.98,325.80 240.00,330.00
             240.00,330.00 237.00,329.00 237.00,329.00
             237.00,329.00 238.00,334.00 238.00,334.00
             232.17,335.34 223.34,344.17 222.00,350.00
             222.00,350.00 217.00,349.00 217.00,349.00
             217.00,349.00 218.00,352.00 218.00,352.00
             214.79,352.84 214.84,352.79 214.00,356.00
             214.00,356.00 209.00,355.00 209.00,355.00
             209.00,355.00 210.00,358.00 210.00,358.00
             210.00,358.00 207.00,357.00 207.00,357.00
             207.00,357.00 208.00,360.00 208.00,360.00
             208.00,360.00 203.00,359.00 203.00,359.00
             203.00,359.00 204.00,362.00 204.00,362.00
             204.00,362.00 199.00,361.00 199.00,361.00
             199.00,361.00 200.00,364.00 200.00,364.00
             200.00,364.00 195.00,363.00 195.00,363.00
             195.00,363.00 196.00,366.00 196.00,366.00
             196.00,366.00 189.00,365.00 189.00,365.00
             189.00,365.00 190.00,368.00 190.00,368.00
             190.00,368.00 181.00,367.00 181.00,367.00
             181.00,367.00 182.00,370.00 182.00,370.00
             182.00,370.00 150.00,369.00 150.00,369.00
             150.00,369.00 90.00,369.00 90.00,369.00
             90.00,369.00 52.00,369.00 52.00,369.00
             52.00,369.00 30.00,370.00 30.00,370.00
             30.00,370.00 31.00,342.00 31.00,342.00
             31.00,342.00 30.00,314.00 30.00,314.00
             37.78,315.89 66.14,315.00 76.00,315.00
             76.00,315.00 167.00,315.00 167.00,315.00
             167.00,315.00 166.00,312.00 166.00,312.00
             166.00,312.00 173.00,313.00 173.00,313.00
             173.00,313.00 172.00,310.00 172.00,310.00
             172.00,310.00 177.00,311.00 177.00,311.00
             177.00,311.00 176.00,308.00 176.00,308.00
             176.00,308.00 179.00,309.00 179.00,309.00
             179.00,309.00 178.00,306.00 178.00,306.00
             178.00,306.00 183.00,307.00 183.00,307.00
             183.00,307.00 182.00,304.00 182.00,304.00
             187.25,302.79 190.79,299.25 192.00,294.00
             192.00,294.00 195.00,295.00 195.00,295.00
             195.00,295.00 194.00,290.00 194.00,290.00
             198.20,289.02 199.02,288.20 200.00,284.00
             200.00,284.00 203.00,285.00 203.00,285.00
             203.00,285.00 202.00,280.00 202.00,280.00
             202.00,280.00 205.00,281.00 205.00,281.00
             205.00,281.00 204.00,278.00 204.00,278.00
             204.00,278.00 207.00,279.00 207.00,279.00
             207.00,279.00 206.00,274.00 206.00,274.00
             209.21,273.16 209.16,273.21 210.00,270.00
             210.00,270.00 213.00,271.00 213.00,271.00
             213.00,271.00 212.00,266.00 212.00,266.00
             212.00,266.00 215.00,267.00 215.00,267.00
             215.00,267.00 214.00,262.00 214.00,262.00
             214.00,262.00 217.00,263.00 217.00,263.00
             217.00,263.00 216.00,260.00 216.00,260.00
             216.00,260.00 219.00,261.00 219.00,261.00
             219.00,261.00 218.00,256.00 218.00,256.00
             218.00,256.00 221.00,257.00 221.00,257.00
             221.00,257.00 220.00,254.00 220.00,254.00
             220.00,254.00 223.00,255.00 223.00,255.00
             223.00,255.00 222.00,250.00 222.00,250.00
             222.00,250.00 225.00,251.00 225.00,251.00
             225.00,251.00 224.00,246.00 224.00,246.00
             224.00,246.00 227.00,247.00 227.00,247.00
             227.00,247.00 226.00,244.00 226.00,244.00
             226.00,244.00 229.00,245.00 229.00,245.00
             229.00,245.00 228.00,240.00 228.00,240.00
             228.00,240.00 231.00,241.00 231.00,241.00
             231.00,241.00 230.00,236.00 230.00,236.00
             230.00,236.00 233.00,237.00 233.00,237.00
             233.00,237.00 232.00,234.00 232.00,234.00
             232.00,234.00 235.00,235.00 235.00,235.00
             235.00,235.00 234.00,230.00 234.00,230.00
             234.00,230.00 237.00,231.00 237.00,231.00
             237.00,231.00 236.00,226.00 236.00,226.00
             236.00,226.00 239.00,227.00 239.00,227.00
             239.00,227.00 238.00,224.00 238.00,224.00
             238.00,224.00 241.00,225.00 241.00,225.00
             241.00,225.00 240.00,220.00 240.00,220.00
             240.00,220.00 243.00,221.00 243.00,221.00
             243.00,221.00 242.00,216.00 242.00,216.00
             242.00,216.00 245.00,217.00 245.00,217.00
             245.00,217.00 244.00,214.00 244.00,214.00
             244.00,214.00 247.00,215.00 247.00,215.00
             247.00,215.00 246.00,210.00 246.00,210.00
             246.00,210.00 249.00,211.00 249.00,211.00
             249.00,211.00 248.00,208.00 248.00,208.00
             248.00,208.00 251.00,209.00 251.00,209.00
             251.00,209.00 250.00,204.00 250.00,204.00
             250.00,204.00 253.00,205.00 253.00,205.00
             253.00,205.00 252.00,200.00 252.00,200.00
             252.00,200.00 255.00,201.00 255.00,201.00
             255.00,201.00 254.00,198.00 254.00,198.00
             254.00,198.00 257.00,199.00 257.00,199.00
             257.00,199.00 256.00,194.00 256.00,194.00
             256.00,194.00 259.00,195.00 259.00,195.00
             259.00,195.00 258.00,192.00 258.00,192.00
             258.00,192.00 261.00,193.00 261.00,193.00
             261.00,193.00 260.00,188.00 260.00,188.00
             263.21,187.16 263.16,187.21 264.00,184.00
             264.00,184.00 267.00,185.00 267.00,185.00
             267.00,185.00 266.00,180.00 266.00,180.00
             269.21,179.16 269.16,179.21 270.00,176.00
             270.00,176.00 273.00,177.00 273.00,177.00
             273.00,177.00 272.00,172.00 272.00,172.00
             278.41,170.53 287.14,159.91 292.00,155.00
             295.20,151.76 296.96,150.53 298.00,146.00
             298.00,146.00 303.00,147.00 303.00,147.00
             303.00,147.00 302.00,144.00 302.00,144.00
             302.00,144.00 305.00,145.00 305.00,145.00
             305.00,145.00 304.00,142.00 304.00,142.00
             304.00,142.00 309.00,143.00 309.00,143.00
             309.00,143.00 308.00,140.00 308.00,140.00
             308.00,140.00 313.00,141.00 313.00,141.00
             313.00,141.00 312.00,138.00 312.00,138.00
             312.00,138.00 317.00,139.00 317.00,139.00
             317.00,139.00 316.00,136.00 316.00,136.00
             316.00,136.00 321.00,137.00 321.00,137.00
             321.00,137.00 320.00,134.00 320.00,134.00
             320.00,134.00 327.00,135.00 327.00,135.00
             327.00,135.00 326.00,132.00 326.00,132.00
             326.00,132.00 337.00,133.00 337.00,133.00
             337.00,133.00 336.00,130.00 336.00,130.00
             336.00,130.00 359.00,131.00 359.00,131.00
             359.00,131.00 399.00,131.00 399.00,131.00
             399.00,120.79 399.92,89.90 398.00,82.00
             398.00,82.00 404.00,82.00 404.00,82.00 Z
           M 406.00,84.00
           C 406.00,84.00 405.00,85.00 405.00,85.00
             405.00,85.00 405.00,84.00 405.00,84.00
             405.00,84.00 406.00,84.00 406.00,84.00 Z
           M 408.00,86.00
           C 408.00,86.00 407.00,87.00 407.00,87.00
             407.00,87.00 407.00,86.00 407.00,86.00
             407.00,86.00 408.00,86.00 408.00,86.00 Z
           M 410.00,88.00
           C 410.00,88.00 409.00,89.00 409.00,89.00
             409.00,89.00 409.00,88.00 409.00,88.00
             409.00,88.00 410.00,88.00 410.00,88.00 Z
           M 412.00,90.00
           C 412.00,90.00 411.00,91.00 411.00,91.00
             411.00,91.00 411.00,90.00 411.00,90.00
             411.00,90.00 412.00,90.00 412.00,90.00 Z
           M 414.00,92.00
           C 414.00,92.00 413.00,93.00 413.00,93.00
             413.00,93.00 413.00,92.00 413.00,92.00
             413.00,92.00 414.00,92.00 414.00,92.00 Z
           M 422.00,98.00
           C 422.00,98.00 421.00,99.00 421.00,99.00
             421.00,99.00 421.00,98.00 421.00,98.00
             421.00,98.00 422.00,98.00 422.00,98.00 Z
           M 424.00,100.00
           C 424.00,100.00 423.00,101.00 423.00,101.00
             423.00,101.00 423.00,100.00 423.00,100.00
             423.00,100.00 424.00,100.00 424.00,100.00 Z
           M 426.00,102.00
           C 426.00,102.00 425.00,103.00 425.00,103.00
             425.00,103.00 425.00,102.00 425.00,102.00
             425.00,102.00 426.00,102.00 426.00,102.00 Z
           M 428.00,104.00
           C 428.00,104.00 427.00,105.00 427.00,105.00
             427.00,105.00 427.00,104.00 427.00,104.00
             427.00,104.00 428.00,104.00 428.00,104.00 Z
           M 430.00,106.00
           C 430.00,106.00 429.00,107.00 429.00,107.00
             429.00,107.00 429.00,106.00 429.00,106.00
             429.00,106.00 430.00,106.00 430.00,106.00 Z
           M 432.00,108.00
           C 432.00,108.00 431.00,109.00 431.00,109.00
             431.00,109.00 431.00,108.00 431.00,108.00
             431.00,108.00 432.00,108.00 432.00,108.00 Z
           M 434.00,110.00
           C 434.00,110.00 433.00,111.00 433.00,111.00
             433.00,111.00 433.00,110.00 433.00,110.00
             433.00,110.00 434.00,110.00 434.00,110.00 Z
           M 436.00,112.00
           C 436.00,112.00 435.00,113.00 435.00,113.00
             435.00,113.00 435.00,112.00 435.00,112.00
             435.00,112.00 436.00,112.00 436.00,112.00 Z
           M 438.00,114.00
           C 438.00,114.00 437.00,115.00 437.00,115.00
             437.00,115.00 437.00,114.00 437.00,114.00
             437.00,114.00 438.00,114.00 438.00,114.00 Z
           M 446.00,120.00
           C 446.00,120.00 445.00,121.00 445.00,121.00
             445.00,121.00 445.00,120.00 445.00,120.00
             445.00,120.00 446.00,120.00 446.00,120.00 Z
           M 448.00,122.00
           C 448.00,122.00 447.00,123.00 447.00,123.00
             447.00,123.00 447.00,122.00 447.00,122.00
             447.00,122.00 448.00,122.00 448.00,122.00 Z
           M 450.00,124.00
           C 450.00,124.00 449.00,125.00 449.00,125.00
             449.00,125.00 449.00,124.00 449.00,124.00
             449.00,124.00 450.00,124.00 450.00,124.00 Z
           M 452.00,126.00
           C 452.00,126.00 451.00,127.00 451.00,127.00
             451.00,127.00 451.00,126.00 451.00,126.00
             451.00,126.00 452.00,126.00 452.00,126.00 Z
           M 454.00,128.00
           C 454.00,128.00 453.00,129.00 453.00,129.00
             453.00,129.00 453.00,128.00 453.00,128.00
             453.00,128.00 454.00,128.00 454.00,128.00 Z
           M 456.00,130.00
           C 456.00,130.00 455.00,131.00 455.00,131.00
             455.00,131.00 455.00,130.00 455.00,130.00
             455.00,130.00 456.00,130.00 456.00,130.00 Z
           M 458.00,132.00
           C 458.00,132.00 457.00,133.00 457.00,133.00
             457.00,133.00 457.00,132.00 457.00,132.00
             457.00,132.00 458.00,132.00 458.00,132.00 Z
           M 460.00,134.00
           C 460.00,134.00 459.00,135.00 459.00,135.00
             459.00,135.00 459.00,134.00 459.00,134.00
             459.00,134.00 460.00,134.00 460.00,134.00 Z
           M 462.00,136.00
           C 462.00,136.00 461.00,137.00 461.00,137.00
             461.00,137.00 461.00,136.00 461.00,136.00
             461.00,136.00 462.00,136.00 462.00,136.00 Z
           M 464.00,138.00
           C 464.00,138.00 463.00,139.00 463.00,139.00
             463.00,139.00 463.00,138.00 463.00,138.00
             463.00,138.00 464.00,138.00 464.00,138.00 Z
           M 52.00,143.00
           C 52.00,143.00 90.00,143.00 90.00,143.00
             90.00,143.00 150.00,143.00 150.00,143.00
             150.00,143.00 182.00,142.00 182.00,142.00
             182.00,142.00 181.00,145.00 181.00,145.00
             181.00,145.00 190.00,144.00 190.00,144.00
             190.00,144.00 189.00,147.00 189.00,147.00
             189.00,147.00 196.00,146.00 196.00,146.00
             196.00,146.00 195.00,149.00 195.00,149.00
             195.00,149.00 202.00,148.00 202.00,148.00
             202.00,148.00 201.00,151.00 201.00,151.00
             201.00,151.00 206.00,150.00 206.00,150.00
             206.00,150.00 205.00,153.00 205.00,153.00
             205.00,153.00 210.00,152.00 210.00,152.00
             210.00,152.00 209.00,155.00 209.00,155.00
             209.00,155.00 212.00,154.00 212.00,154.00
             212.00,154.00 211.00,157.00 211.00,157.00
             211.00,157.00 216.00,156.00 216.00,156.00
             216.00,156.00 215.00,159.00 215.00,159.00
             215.00,159.00 218.00,158.00 218.00,158.00
             218.00,158.00 217.00,161.00 217.00,161.00
             217.00,161.00 222.00,160.00 222.00,160.00
             223.21,165.25 226.75,168.79 232.00,170.00
             230.77,175.08 230.77,176.92 232.00,182.00
             232.00,182.00 229.00,181.00 229.00,181.00
             229.00,181.00 230.00,186.00 230.00,186.00
             230.00,186.00 227.00,185.00 227.00,185.00
             227.00,185.00 228.00,188.00 228.00,188.00
             228.00,188.00 225.00,187.00 225.00,187.00
             225.00,187.00 226.00,192.00 226.00,192.00
             226.00,192.00 223.00,191.00 223.00,191.00
             223.00,191.00 224.00,194.00 224.00,194.00
             224.00,194.00 221.00,193.00 221.00,193.00
             221.00,193.00 222.00,198.00 222.00,198.00
             222.00,198.00 219.00,197.00 219.00,197.00
             219.00,197.00 220.00,202.00 220.00,202.00
             220.00,202.00 217.00,201.00 217.00,201.00
             217.00,201.00 218.00,204.00 218.00,204.00
             218.00,204.00 215.00,203.00 215.00,203.00
             215.00,203.00 216.00,208.00 216.00,208.00
             216.00,208.00 213.00,207.00 213.00,207.00
             213.00,207.00 214.00,212.00 214.00,212.00
             214.00,212.00 211.00,211.00 211.00,211.00
             211.00,211.00 212.00,214.00 212.00,214.00
             212.00,214.00 209.00,213.00 209.00,213.00
             209.00,213.00 210.00,218.00 210.00,218.00
             210.00,218.00 207.00,217.00 207.00,217.00
             207.00,217.00 208.00,222.00 208.00,222.00
             204.79,222.84 204.84,222.79 204.00,226.00
             204.00,226.00 198.00,226.00 198.00,226.00
             198.00,226.00 199.00,223.00 199.00,223.00
             199.00,223.00 196.00,224.00 196.00,224.00
             196.00,224.00 197.00,219.00 197.00,219.00
             197.00,219.00 194.00,220.00 194.00,220.00
             192.72,214.42 187.58,209.28 182.00,208.00
             182.00,208.00 183.00,205.00 183.00,205.00
             183.00,205.00 178.00,206.00 178.00,206.00
             178.00,206.00 179.00,203.00 179.00,203.00
             179.00,203.00 176.00,204.00 176.00,204.00
             176.00,204.00 177.00,201.00 177.00,201.00
             177.00,201.00 172.00,202.00 172.00,202.00
             172.00,202.00 173.00,199.00 173.00,199.00
             173.00,199.00 166.00,200.00 166.00,200.00
             166.00,200.00 167.00,197.00 167.00,197.00
             167.00,197.00 76.00,197.00 76.00,197.00
             66.14,197.00 37.78,196.11 30.00,198.00
             30.00,198.00 31.00,170.00 31.00,170.00
             31.00,170.00 30.00,142.00 30.00,142.00
             30.00,142.00 52.00,143.00 52.00,143.00 Z
           M 472.00,144.00
           C 472.00,144.00 471.00,145.00 471.00,145.00
             471.00,145.00 471.00,144.00 471.00,144.00
             471.00,144.00 472.00,144.00 472.00,144.00 Z
           M 474.00,146.00
           C 474.00,146.00 473.00,147.00 473.00,147.00
             473.00,147.00 473.00,146.00 473.00,146.00
             473.00,146.00 474.00,146.00 474.00,146.00 Z
           M 297.00,148.00
           C 297.00,148.00 296.00,149.00 296.00,149.00
             296.00,149.00 296.00,148.00 296.00,148.00
             296.00,148.00 297.00,148.00 297.00,148.00 Z
           M 476.00,148.00
           C 476.00,148.00 475.00,149.00 475.00,149.00
             475.00,149.00 475.00,148.00 475.00,148.00
             475.00,148.00 476.00,148.00 476.00,148.00 Z
           M 295.00,150.00
           C 295.00,150.00 294.00,151.00 294.00,151.00
             294.00,151.00 294.00,150.00 294.00,150.00
             294.00,150.00 295.00,150.00 295.00,150.00 Z
           M 478.00,150.00
           C 478.00,150.00 477.00,151.00 477.00,151.00
             477.00,151.00 477.00,150.00 477.00,150.00
             477.00,150.00 478.00,150.00 478.00,150.00 Z
           M 293.00,152.00
           C 293.00,152.00 292.00,153.00 292.00,153.00
             292.00,153.00 292.00,152.00 292.00,152.00
             292.00,152.00 293.00,152.00 293.00,152.00 Z
           M 480.00,152.00
           C 480.00,152.00 479.00,153.00 479.00,153.00
             479.00,153.00 479.00,152.00 479.00,152.00
             479.00,152.00 480.00,152.00 480.00,152.00 Z
           M 291.00,154.00
           C 291.00,154.00 290.00,155.00 290.00,155.00
             290.00,155.00 290.00,154.00 290.00,154.00
             290.00,154.00 291.00,154.00 291.00,154.00 Z
           M 289.00,156.00
           C 289.00,156.00 288.00,157.00 288.00,157.00
             288.00,157.00 288.00,156.00 288.00,156.00
             288.00,156.00 289.00,156.00 289.00,156.00 Z
           M 287.00,158.00
           C 287.00,158.00 286.00,159.00 286.00,159.00
             286.00,159.00 286.00,158.00 286.00,158.00
             286.00,158.00 287.00,158.00 287.00,158.00 Z
           M 285.00,160.00
           C 285.00,160.00 284.00,161.00 284.00,161.00
             284.00,161.00 284.00,160.00 284.00,160.00
             284.00,160.00 285.00,160.00 285.00,160.00 Z
           M 224.00,162.00
           C 224.00,162.00 223.00,163.00 223.00,163.00
             223.00,163.00 223.00,162.00 223.00,162.00
             223.00,162.00 224.00,162.00 224.00,162.00 Z
           M 283.00,162.00
           C 283.00,162.00 282.00,163.00 282.00,163.00
             282.00,163.00 282.00,162.00 282.00,162.00
             282.00,162.00 283.00,162.00 283.00,162.00 Z
           M 226.00,164.00
           C 226.00,164.00 225.00,165.00 225.00,165.00
             225.00,165.00 225.00,164.00 225.00,164.00
             225.00,164.00 226.00,164.00 226.00,164.00 Z
           M 281.00,164.00
           C 281.00,164.00 280.00,165.00 280.00,165.00
             280.00,165.00 280.00,164.00 280.00,164.00
             280.00,164.00 281.00,164.00 281.00,164.00 Z
           M 480.00,165.00
           C 480.00,165.00 479.00,166.00 479.00,166.00
             479.00,166.00 479.00,165.00 479.00,165.00
             479.00,165.00 480.00,165.00 480.00,165.00 Z
           M 228.00,166.00
           C 228.00,166.00 227.00,167.00 227.00,167.00
             227.00,167.00 227.00,166.00 227.00,166.00
             227.00,166.00 228.00,166.00 228.00,166.00 Z
           M 279.00,166.00
           C 279.00,166.00 278.00,167.00 278.00,167.00
             278.00,167.00 278.00,166.00 278.00,166.00
             278.00,166.00 279.00,166.00 279.00,166.00 Z
           M 478.00,167.00
           C 478.00,167.00 477.00,168.00 477.00,168.00
             477.00,168.00 477.00,167.00 477.00,167.00
             477.00,167.00 478.00,167.00 478.00,167.00 Z
           M 230.00,168.00
           C 230.00,168.00 229.00,169.00 229.00,169.00
             229.00,169.00 229.00,168.00 229.00,168.00
             229.00,168.00 230.00,168.00 230.00,168.00 Z
           M 277.00,168.00
           C 277.00,168.00 276.00,169.00 276.00,169.00
             276.00,169.00 276.00,168.00 276.00,168.00
             276.00,168.00 277.00,168.00 277.00,168.00 Z
           M 275.00,170.00
           C 275.00,170.00 274.00,171.00 274.00,171.00
             274.00,171.00 274.00,170.00 274.00,170.00
             274.00,170.00 275.00,170.00 275.00,170.00 Z
           M 470.00,173.00
           C 470.00,173.00 469.00,174.00 469.00,174.00
             469.00,174.00 469.00,173.00 469.00,173.00
             469.00,173.00 470.00,173.00 470.00,173.00 Z
           M 468.00,175.00
           C 468.00,175.00 467.00,176.00 467.00,176.00
             467.00,176.00 467.00,175.00 467.00,175.00
             467.00,175.00 468.00,175.00 468.00,175.00 Z
           M 466.00,177.00
           C 466.00,177.00 465.00,178.00 465.00,178.00
             465.00,178.00 465.00,177.00 465.00,177.00
             465.00,177.00 466.00,177.00 466.00,177.00 Z
           M 269.00,178.00
           C 269.00,178.00 268.00,179.00 268.00,179.00
             268.00,179.00 268.00,178.00 268.00,178.00
             268.00,178.00 269.00,178.00 269.00,178.00 Z
           M 464.00,179.00
           C 464.00,179.00 463.00,180.00 463.00,180.00
             463.00,180.00 463.00,179.00 463.00,179.00
             463.00,179.00 464.00,179.00 464.00,179.00 Z
           M 462.00,181.00
           C 462.00,181.00 461.00,182.00 461.00,182.00
             461.00,182.00 461.00,181.00 461.00,181.00
             461.00,181.00 462.00,181.00 462.00,181.00 Z
           M 460.00,183.00
           C 460.00,183.00 459.00,184.00 459.00,184.00
             459.00,184.00 459.00,183.00 459.00,183.00
             459.00,183.00 460.00,183.00 460.00,183.00 Z
           M 458.00,185.00
           C 458.00,185.00 457.00,186.00 457.00,186.00
             457.00,186.00 457.00,185.00 457.00,185.00
             457.00,185.00 458.00,185.00 458.00,185.00 Z
           M 263.00,186.00
           C 263.00,186.00 262.00,187.00 262.00,187.00
             262.00,187.00 262.00,186.00 262.00,186.00
             262.00,186.00 263.00,186.00 263.00,186.00 Z
           M 456.00,187.00
           C 456.00,187.00 455.00,188.00 455.00,188.00
             455.00,188.00 455.00,187.00 455.00,187.00
             455.00,187.00 456.00,187.00 456.00,187.00 Z
           M 454.00,189.00
           C 454.00,189.00 453.00,190.00 453.00,190.00
             453.00,190.00 453.00,189.00 453.00,189.00
             453.00,189.00 454.00,189.00 454.00,189.00 Z
           M 452.00,191.00
           C 452.00,191.00 451.00,192.00 451.00,192.00
             451.00,192.00 451.00,191.00 451.00,191.00
             451.00,191.00 452.00,191.00 452.00,191.00 Z
           M 334.00,195.00
           C 334.00,195.00 333.00,196.00 333.00,196.00
             333.00,196.00 333.00,195.00 333.00,195.00
             333.00,195.00 334.00,195.00 334.00,195.00 Z
           M 332.00,197.00
           C 332.00,197.00 331.00,198.00 331.00,198.00
             331.00,198.00 331.00,197.00 331.00,197.00
             331.00,197.00 332.00,197.00 332.00,197.00 Z
           M 444.00,197.00
           C 444.00,197.00 443.00,198.00 443.00,198.00
             443.00,198.00 443.00,197.00 443.00,197.00
             443.00,197.00 444.00,197.00 444.00,197.00 Z
           M 330.00,199.00
           C 330.00,199.00 329.00,200.00 329.00,200.00
             329.00,200.00 329.00,199.00 329.00,199.00
             329.00,199.00 330.00,199.00 330.00,199.00 Z
           M 442.00,199.00
           C 442.00,199.00 441.00,200.00 441.00,200.00
             441.00,200.00 441.00,199.00 441.00,199.00
             441.00,199.00 442.00,199.00 442.00,199.00 Z
           M 328.00,201.00
           C 328.00,201.00 327.00,202.00 327.00,202.00
             327.00,202.00 327.00,201.00 327.00,201.00
             327.00,201.00 328.00,201.00 328.00,201.00 Z
           M 440.00,201.00
           C 440.00,201.00 439.00,202.00 439.00,202.00
             439.00,202.00 439.00,201.00 439.00,201.00
             439.00,201.00 440.00,201.00 440.00,201.00 Z
           M 326.00,203.00
           C 326.00,203.00 325.00,204.00 325.00,204.00
             325.00,204.00 325.00,203.00 325.00,203.00
             325.00,203.00 326.00,203.00 326.00,203.00 Z
           M 438.00,203.00
           C 438.00,203.00 437.00,204.00 437.00,204.00
             437.00,204.00 437.00,203.00 437.00,203.00
             437.00,203.00 438.00,203.00 438.00,203.00 Z
           M 324.00,205.00
           C 324.00,205.00 323.00,206.00 323.00,206.00
             323.00,206.00 323.00,205.00 323.00,205.00
             323.00,205.00 324.00,205.00 324.00,205.00 Z
           M 436.00,205.00
           C 436.00,205.00 435.00,206.00 435.00,206.00
             435.00,206.00 435.00,205.00 435.00,205.00
             435.00,205.00 436.00,205.00 436.00,205.00 Z
           M 322.00,207.00
           C 322.00,207.00 321.00,208.00 321.00,208.00
             321.00,208.00 321.00,207.00 321.00,207.00
             321.00,207.00 322.00,207.00 322.00,207.00 Z
           M 434.00,207.00
           C 434.00,207.00 433.00,208.00 433.00,208.00
             433.00,208.00 433.00,207.00 433.00,207.00
             433.00,207.00 434.00,207.00 434.00,207.00 Z
           M 185.00,209.00
           C 185.00,209.00 184.00,210.00 184.00,210.00
             184.00,210.00 184.00,209.00 184.00,209.00
             184.00,209.00 185.00,209.00 185.00,209.00 Z
           M 320.00,209.00
           C 320.00,209.00 319.00,210.00 319.00,210.00
             319.00,210.00 319.00,209.00 319.00,209.00
             319.00,209.00 320.00,209.00 320.00,209.00 Z
           M 432.00,209.00
           C 432.00,209.00 431.00,210.00 431.00,210.00
             431.00,210.00 431.00,209.00 431.00,209.00
             431.00,209.00 432.00,209.00 432.00,209.00 Z
           M 187.00,211.00
           C 187.00,211.00 186.00,212.00 186.00,212.00
             186.00,212.00 186.00,211.00 186.00,211.00
             186.00,211.00 187.00,211.00 187.00,211.00 Z
           M 430.00,211.00
           C 430.00,211.00 429.00,212.00 429.00,212.00
             429.00,212.00 429.00,211.00 429.00,211.00
             429.00,211.00 430.00,211.00 430.00,211.00 Z
           M 189.00,213.00
           C 189.00,213.00 188.00,214.00 188.00,214.00
             188.00,214.00 188.00,213.00 188.00,213.00
             188.00,213.00 189.00,213.00 189.00,213.00 Z
           M 428.00,213.00
           C 428.00,213.00 427.00,214.00 427.00,214.00
             427.00,214.00 427.00,213.00 427.00,213.00
             427.00,213.00 428.00,213.00 428.00,213.00 Z
           M 191.00,215.00
           C 191.00,215.00 190.00,216.00 190.00,216.00
             190.00,216.00 190.00,215.00 190.00,215.00
             190.00,215.00 191.00,215.00 191.00,215.00 Z
           M 193.00,217.00
           C 193.00,217.00 192.00,218.00 192.00,218.00
             192.00,218.00 192.00,217.00 192.00,217.00
             192.00,217.00 193.00,217.00 193.00,217.00 Z
           M 314.00,217.00
           C 314.00,217.00 313.00,218.00 313.00,218.00
             313.00,218.00 313.00,217.00 313.00,217.00
             313.00,217.00 314.00,217.00 314.00,217.00 Z
           M 420.00,219.00
           C 420.00,219.00 419.00,220.00 419.00,220.00
             419.00,220.00 419.00,219.00 419.00,219.00
             419.00,219.00 420.00,219.00 420.00,219.00 Z
           M 418.00,221.00
           C 418.00,221.00 417.00,222.00 417.00,222.00
             417.00,222.00 417.00,221.00 417.00,221.00
             417.00,221.00 418.00,221.00 418.00,221.00 Z
           M 206.00,223.00
           C 206.00,223.00 205.00,224.00 205.00,224.00
             205.00,224.00 205.00,223.00 205.00,223.00
             205.00,223.00 206.00,223.00 206.00,223.00 Z
           M 416.00,223.00
           C 416.00,223.00 415.00,224.00 415.00,224.00
             415.00,224.00 415.00,223.00 415.00,223.00
             415.00,223.00 416.00,223.00 416.00,223.00 Z
           M 414.00,225.00
           C 414.00,225.00 413.00,226.00 413.00,226.00
             413.00,226.00 413.00,225.00 413.00,225.00
             413.00,225.00 414.00,225.00 414.00,225.00 Z
           M 412.00,227.00
           C 412.00,227.00 411.00,228.00 411.00,228.00
             411.00,228.00 411.00,227.00 411.00,227.00
             411.00,227.00 412.00,227.00 412.00,227.00 Z
           M 410.00,229.00
           C 410.00,229.00 409.00,230.00 409.00,230.00
             409.00,230.00 409.00,229.00 409.00,229.00
             409.00,229.00 410.00,229.00 410.00,229.00 Z
           M 408.00,231.00
           C 408.00,231.00 407.00,232.00 407.00,232.00
             407.00,232.00 407.00,231.00 407.00,231.00
             407.00,231.00 408.00,231.00 408.00,231.00 Z
           M 406.00,233.00
           C 406.00,233.00 405.00,234.00 405.00,234.00
             405.00,234.00 405.00,233.00 405.00,233.00
             405.00,233.00 406.00,233.00 406.00,233.00 Z
           M 209.00,272.00
           C 209.00,272.00 208.00,273.00 208.00,273.00
             208.00,273.00 208.00,272.00 208.00,272.00
             208.00,272.00 209.00,272.00 209.00,272.00 Z
           M 404.00,276.00
           C 405.36,281.92 416.08,292.64 422.00,294.00
             422.00,294.00 421.00,297.00 421.00,297.00
             421.00,297.00 426.00,296.00 426.00,296.00
             427.38,301.99 440.01,314.62 446.00,316.00
             446.00,316.00 445.00,319.00 445.00,319.00
             445.00,319.00 450.00,318.00 450.00,318.00
             450.00,318.00 450.86,321.00 450.86,321.00
             450.86,321.00 468.00,338.53 468.00,338.53
             468.00,338.53 472.00,340.00 472.00,340.00
             472.00,340.00 471.00,343.00 471.00,343.00
             471.00,343.00 476.00,342.00 476.00,342.00
             476.98,346.20 477.80,347.02 482.00,348.00
             482.00,348.00 482.00,358.00 482.00,358.00
             476.42,359.28 471.28,364.42 470.00,370.00
             470.00,370.00 465.00,369.00 465.00,369.00
             465.00,369.00 466.00,372.00 466.00,372.00
             466.00,372.00 462.00,373.47 462.00,373.47
             462.00,373.47 444.86,391.00 444.86,391.00
             444.86,391.00 444.00,394.00 444.00,394.00
             444.00,394.00 439.00,393.00 439.00,393.00
             439.00,393.00 440.00,396.00 440.00,396.00
             434.01,397.38 421.38,410.01 420.00,416.00
             420.00,416.00 415.00,415.00 415.00,415.00
             415.00,415.00 416.00,418.00 416.00,418.00
             410.42,419.28 405.28,424.42 404.00,430.00
             404.00,430.00 398.00,430.00 398.00,430.00
             399.92,422.10 399.00,391.21 399.00,381.00
             399.00,381.00 359.00,381.00 359.00,381.00
             359.00,381.00 336.00,382.00 336.00,382.00
             336.00,382.00 337.00,379.00 337.00,379.00
             337.00,379.00 326.00,380.00 326.00,380.00
             326.00,380.00 327.00,377.00 327.00,377.00
             327.00,377.00 320.00,378.00 320.00,378.00
             320.00,378.00 321.00,375.00 321.00,375.00
             321.00,375.00 314.00,376.00 314.00,376.00
             314.00,376.00 315.00,373.00 315.00,373.00
             315.00,373.00 310.00,374.00 310.00,374.00
             310.00,374.00 311.00,371.00 311.00,371.00
             311.00,371.00 306.00,372.00 306.00,372.00
             306.00,372.00 307.00,369.00 307.00,369.00
             307.00,369.00 304.00,370.00 304.00,370.00
             304.00,370.00 305.00,367.00 305.00,367.00
             305.00,367.00 300.00,368.00 300.00,368.00
             300.00,368.00 301.00,365.00 301.00,365.00
             301.00,365.00 298.00,366.00 298.00,366.00
             298.00,366.00 299.00,363.00 299.00,363.00
             299.00,363.00 294.00,364.00 294.00,364.00
             292.62,358.01 279.99,345.38 274.00,344.00
             274.00,344.00 275.00,339.00 275.00,339.00
             275.00,339.00 272.00,340.00 272.00,340.00
             272.00,340.00 273.00,337.00 273.00,337.00
             273.00,337.00 270.00,338.00 270.00,338.00
             270.00,338.00 270.00,330.00 270.00,330.00
             270.00,330.00 273.00,331.00 273.00,331.00
             273.00,331.00 272.00,328.00 272.00,328.00
             272.00,328.00 275.00,329.00 275.00,329.00
             275.00,329.00 274.00,324.00 274.00,324.00
             274.00,324.00 277.00,325.00 277.00,325.00
             277.00,325.00 276.00,322.00 276.00,322.00
             276.00,322.00 279.00,323.00 279.00,323.00
             279.00,323.00 278.00,318.00 278.00,318.00
             278.00,318.00 281.00,319.00 281.00,319.00
             281.00,319.00 280.00,316.00 280.00,316.00
             280.00,316.00 283.00,317.00 283.00,317.00
             283.00,317.00 282.00,312.00 282.00,312.00
             282.00,312.00 285.00,313.00 285.00,313.00
             285.00,313.00 284.00,310.00 284.00,310.00
             284.00,310.00 287.00,311.00 287.00,311.00
             287.00,311.00 286.00,306.00 286.00,306.00
             286.00,306.00 289.00,307.00 289.00,307.00
             289.00,307.00 288.00,304.00 288.00,304.00
             288.00,304.00 291.00,305.00 291.00,305.00
             291.00,305.00 290.00,300.00 290.00,300.00
             290.00,300.00 293.00,301.00 293.00,301.00
             293.00,301.00 292.00,298.00 292.00,298.00
             292.00,298.00 295.00,299.00 295.00,299.00
             295.00,299.00 294.00,294.00 294.00,294.00
             294.00,294.00 297.00,295.00 297.00,295.00
             297.00,295.00 296.00,292.00 296.00,292.00
             296.00,292.00 299.00,293.00 299.00,293.00
             299.00,293.00 298.00,288.00 298.00,288.00
             298.00,288.00 301.00,289.00 301.00,289.00
             301.00,289.00 300.00,286.00 300.00,286.00
             300.00,286.00 308.00,286.00 308.00,286.00
             308.00,286.00 307.00,289.00 307.00,289.00
             307.00,289.00 310.00,288.00 310.00,288.00
             310.00,288.00 309.00,293.00 309.00,293.00
             309.00,293.00 312.00,292.00 312.00,292.00
             312.00,292.00 311.00,295.00 311.00,295.00
             311.00,295.00 314.00,294.00 314.00,294.00
             314.00,294.00 313.00,299.00 313.00,299.00
             313.00,299.00 316.00,298.00 316.00,298.00
             316.00,298.00 315.00,301.00 315.00,301.00
             315.00,301.00 318.00,300.00 318.00,300.00
             318.00,300.00 317.00,305.00 317.00,305.00
             317.00,305.00 320.00,304.00 320.00,304.00
             321.33,309.80 328.20,316.67 334.00,318.00
             334.00,318.00 333.00,321.00 333.00,321.00
             333.00,321.00 338.00,320.00 338.00,320.00
             338.00,320.00 337.00,323.00 337.00,323.00
             337.00,323.00 342.00,322.00 342.00,322.00
             342.00,322.00 341.00,325.00 341.00,325.00
             341.00,325.00 399.00,325.00 399.00,325.00
             399.00,314.79 399.92,283.90 398.00,276.00
             398.00,276.00 404.00,276.00 404.00,276.00 Z
           M 406.00,278.00
           C 406.00,278.00 405.00,279.00 405.00,279.00
             405.00,279.00 405.00,278.00 405.00,278.00
             405.00,278.00 406.00,278.00 406.00,278.00 Z
           M 408.00,280.00
           C 408.00,280.00 407.00,281.00 407.00,281.00
             407.00,281.00 407.00,280.00 407.00,280.00
             407.00,280.00 408.00,280.00 408.00,280.00 Z
           M 410.00,282.00
           C 410.00,282.00 409.00,283.00 409.00,283.00
             409.00,283.00 409.00,282.00 409.00,282.00
             409.00,282.00 410.00,282.00 410.00,282.00 Z
           M 412.00,284.00
           C 412.00,284.00 411.00,285.00 411.00,285.00
             411.00,285.00 411.00,284.00 411.00,284.00
             411.00,284.00 412.00,284.00 412.00,284.00 Z
           M 199.00,286.00
           C 199.00,286.00 198.00,287.00 198.00,287.00
             198.00,287.00 198.00,286.00 198.00,286.00
             198.00,286.00 199.00,286.00 199.00,286.00 Z
           M 414.00,286.00
           C 414.00,286.00 413.00,287.00 413.00,287.00
             413.00,287.00 413.00,286.00 413.00,286.00
             413.00,286.00 414.00,286.00 414.00,286.00 Z
           M 197.00,288.00
           C 197.00,288.00 196.00,289.00 196.00,289.00
             196.00,289.00 196.00,288.00 196.00,288.00
             196.00,288.00 197.00,288.00 197.00,288.00 Z
           M 416.00,288.00
           C 416.00,288.00 415.00,289.00 415.00,289.00
             415.00,289.00 415.00,288.00 415.00,288.00
             415.00,288.00 416.00,288.00 416.00,288.00 Z
           M 418.00,290.00
           C 418.00,290.00 417.00,291.00 417.00,291.00
             417.00,291.00 417.00,290.00 417.00,290.00
             417.00,290.00 418.00,290.00 418.00,290.00 Z
           M 420.00,292.00
           C 420.00,292.00 419.00,293.00 419.00,293.00
             419.00,293.00 419.00,292.00 419.00,292.00
             419.00,292.00 420.00,292.00 420.00,292.00 Z
           M 191.00,296.00
           C 191.00,296.00 190.00,297.00 190.00,297.00
             190.00,297.00 190.00,296.00 190.00,296.00
             190.00,296.00 191.00,296.00 191.00,296.00 Z
           M 189.00,298.00
           C 189.00,298.00 188.00,299.00 188.00,299.00
             188.00,299.00 188.00,298.00 188.00,298.00
             188.00,298.00 189.00,298.00 189.00,298.00 Z
           M 428.00,298.00
           C 428.00,298.00 427.00,299.00 427.00,299.00
             427.00,299.00 427.00,298.00 427.00,298.00
             427.00,298.00 428.00,298.00 428.00,298.00 Z
           M 187.00,300.00
           C 187.00,300.00 186.00,301.00 186.00,301.00
             186.00,301.00 186.00,300.00 186.00,300.00
             186.00,300.00 187.00,300.00 187.00,300.00 Z
           M 430.00,300.00
           C 430.00,300.00 429.00,301.00 429.00,301.00
             429.00,301.00 429.00,300.00 429.00,300.00
             429.00,300.00 430.00,300.00 430.00,300.00 Z
           M 185.00,302.00
           C 185.00,302.00 184.00,303.00 184.00,303.00
             184.00,303.00 184.00,302.00 184.00,302.00
             184.00,302.00 185.00,302.00 185.00,302.00 Z
           M 432.00,302.00
           C 432.00,302.00 431.00,303.00 431.00,303.00
             431.00,303.00 431.00,302.00 431.00,302.00
             431.00,302.00 432.00,302.00 432.00,302.00 Z
           M 434.00,304.00
           C 434.00,304.00 433.00,305.00 433.00,305.00
             433.00,305.00 433.00,304.00 433.00,304.00
             433.00,304.00 434.00,304.00 434.00,304.00 Z
           M 322.00,306.00
           C 322.00,306.00 321.00,307.00 321.00,307.00
             321.00,307.00 321.00,306.00 321.00,306.00
             321.00,306.00 322.00,306.00 322.00,306.00 Z
           M 436.00,306.00
           C 436.00,306.00 435.00,307.00 435.00,307.00
             435.00,307.00 435.00,306.00 435.00,306.00
             435.00,306.00 436.00,306.00 436.00,306.00 Z
           M 324.00,308.00
           C 324.00,308.00 323.00,309.00 323.00,309.00
             323.00,309.00 323.00,308.00 323.00,308.00
             323.00,308.00 324.00,308.00 324.00,308.00 Z
           M 438.00,308.00
           C 438.00,308.00 437.00,309.00 437.00,309.00
             437.00,309.00 437.00,308.00 437.00,308.00
             437.00,308.00 438.00,308.00 438.00,308.00 Z
           M 326.00,310.00
           C 326.00,310.00 325.00,311.00 325.00,311.00
             325.00,311.00 325.00,310.00 325.00,310.00
             325.00,310.00 326.00,310.00 326.00,310.00 Z
           M 440.00,310.00
           C 440.00,310.00 439.00,311.00 439.00,311.00
             439.00,311.00 439.00,310.00 439.00,310.00
             439.00,310.00 440.00,310.00 440.00,310.00 Z
           M 328.00,312.00
           C 328.00,312.00 327.00,313.00 327.00,313.00
             327.00,313.00 327.00,312.00 327.00,312.00
             327.00,312.00 328.00,312.00 328.00,312.00 Z
           M 442.00,312.00
           C 442.00,312.00 441.00,313.00 441.00,313.00
             441.00,313.00 441.00,312.00 441.00,312.00
             441.00,312.00 442.00,312.00 442.00,312.00 Z
           M 330.00,314.00
           C 330.00,314.00 329.00,315.00 329.00,315.00
             329.00,315.00 329.00,314.00 329.00,314.00
             329.00,314.00 330.00,314.00 330.00,314.00 Z
           M 444.00,314.00
           C 444.00,314.00 443.00,315.00 443.00,315.00
             443.00,315.00 443.00,314.00 443.00,314.00
             443.00,314.00 444.00,314.00 444.00,314.00 Z
           M 332.00,316.00
           C 332.00,316.00 331.00,317.00 331.00,317.00
             331.00,317.00 331.00,316.00 331.00,316.00
             331.00,316.00 332.00,316.00 332.00,316.00 Z
           M 250.00,317.00
           C 250.00,317.00 249.00,318.00 249.00,318.00
             249.00,318.00 249.00,317.00 249.00,317.00
             249.00,317.00 250.00,317.00 250.00,317.00 Z
           M 452.00,320.00
           C 452.00,320.00 451.00,321.00 451.00,321.00
             451.00,321.00 451.00,320.00 451.00,320.00
             451.00,320.00 452.00,320.00 452.00,320.00 Z
           M 454.00,322.00
           C 454.00,322.00 453.00,323.00 453.00,323.00
             453.00,323.00 453.00,322.00 453.00,322.00
             453.00,322.00 454.00,322.00 454.00,322.00 Z
           M 456.00,324.00
           C 456.00,324.00 455.00,325.00 455.00,325.00
             455.00,325.00 455.00,324.00 455.00,324.00
             455.00,324.00 456.00,324.00 456.00,324.00 Z
           M 244.00,325.00
           C 244.00,325.00 243.00,326.00 243.00,326.00
             243.00,326.00 243.00,325.00 243.00,325.00
             243.00,325.00 244.00,325.00 244.00,325.00 Z
           M 458.00,326.00
           C 458.00,326.00 457.00,327.00 457.00,327.00
             457.00,327.00 457.00,326.00 457.00,326.00
             457.00,326.00 458.00,326.00 458.00,326.00 Z
           M 242.00,327.00
           C 242.00,327.00 241.00,328.00 241.00,328.00
             241.00,328.00 241.00,327.00 241.00,327.00
             241.00,327.00 242.00,327.00 242.00,327.00 Z
           M 460.00,328.00
           C 460.00,328.00 459.00,329.00 459.00,329.00
             459.00,329.00 459.00,328.00 459.00,328.00
             459.00,328.00 460.00,328.00 460.00,328.00 Z
           M 462.00,330.00
           C 462.00,330.00 461.00,331.00 461.00,331.00
             461.00,331.00 461.00,330.00 461.00,330.00
             461.00,330.00 462.00,330.00 462.00,330.00 Z
           M 464.00,332.00
           C 464.00,332.00 463.00,333.00 463.00,333.00
             463.00,333.00 463.00,332.00 463.00,332.00
             463.00,332.00 464.00,332.00 464.00,332.00 Z
           M 466.00,334.00
           C 466.00,334.00 465.00,335.00 465.00,335.00
             465.00,335.00 465.00,334.00 465.00,334.00
             465.00,334.00 466.00,334.00 466.00,334.00 Z
           M 236.00,335.00
           C 236.00,335.00 235.00,336.00 235.00,336.00
             235.00,336.00 235.00,335.00 235.00,335.00
             235.00,335.00 236.00,335.00 236.00,335.00 Z
           M 468.00,336.00
           C 468.00,336.00 467.00,337.00 467.00,337.00
             467.00,337.00 467.00,336.00 467.00,336.00
             467.00,336.00 468.00,336.00 468.00,336.00 Z
           M 234.00,337.00
           C 234.00,337.00 233.00,338.00 233.00,338.00
             233.00,338.00 233.00,337.00 233.00,337.00
             233.00,337.00 234.00,337.00 234.00,337.00 Z
           M 470.00,338.00
           C 470.00,338.00 469.00,339.00 469.00,339.00
             469.00,339.00 469.00,338.00 469.00,338.00
             469.00,338.00 470.00,338.00 470.00,338.00 Z
           M 232.00,339.00
           C 232.00,339.00 231.00,340.00 231.00,340.00
             231.00,340.00 231.00,339.00 231.00,339.00
             231.00,339.00 232.00,339.00 232.00,339.00 Z
           M 230.00,341.00
           C 230.00,341.00 229.00,342.00 229.00,342.00
             229.00,342.00 229.00,341.00 229.00,341.00
             229.00,341.00 230.00,341.00 230.00,341.00 Z
           M 228.00,343.00
           C 228.00,343.00 227.00,344.00 227.00,344.00
             227.00,344.00 227.00,343.00 227.00,343.00
             227.00,343.00 228.00,343.00 228.00,343.00 Z
           M 478.00,344.00
           C 478.00,344.00 477.00,345.00 477.00,345.00
             477.00,345.00 477.00,344.00 477.00,344.00
             477.00,344.00 478.00,344.00 478.00,344.00 Z
           M 226.00,345.00
           C 226.00,345.00 225.00,346.00 225.00,346.00
             225.00,346.00 225.00,345.00 225.00,345.00
             225.00,345.00 226.00,345.00 226.00,345.00 Z
           M 277.00,345.00
           C 277.00,345.00 276.00,346.00 276.00,346.00
             276.00,346.00 276.00,345.00 276.00,345.00
             276.00,345.00 277.00,345.00 277.00,345.00 Z
           M 480.00,346.00
           C 480.00,346.00 479.00,347.00 479.00,347.00
             479.00,347.00 479.00,346.00 479.00,346.00
             479.00,346.00 480.00,346.00 480.00,346.00 Z
           M 224.00,347.00
           C 224.00,347.00 223.00,348.00 223.00,348.00
             223.00,348.00 223.00,347.00 223.00,347.00
             223.00,347.00 224.00,347.00 224.00,347.00 Z
           M 279.00,347.00
           C 279.00,347.00 278.00,348.00 278.00,348.00
             278.00,348.00 278.00,347.00 278.00,347.00
             278.00,347.00 279.00,347.00 279.00,347.00 Z
           M 281.00,349.00
           C 281.00,349.00 280.00,350.00 280.00,350.00
             280.00,350.00 280.00,349.00 280.00,349.00
             280.00,349.00 281.00,349.00 281.00,349.00 Z
           M 283.00,351.00
           C 283.00,351.00 282.00,352.00 282.00,352.00
             282.00,352.00 282.00,351.00 282.00,351.00
             282.00,351.00 283.00,351.00 283.00,351.00 Z
           M 216.00,353.00
           C 216.00,353.00 215.00,354.00 215.00,354.00
             215.00,354.00 215.00,353.00 215.00,353.00
             215.00,353.00 216.00,353.00 216.00,353.00 Z
           M 285.00,353.00
           C 285.00,353.00 284.00,354.00 284.00,354.00
             284.00,354.00 284.00,353.00 284.00,353.00
             284.00,353.00 285.00,353.00 285.00,353.00 Z
           M 287.00,355.00
           C 287.00,355.00 286.00,356.00 286.00,356.00
             286.00,356.00 286.00,355.00 286.00,355.00
             286.00,355.00 287.00,355.00 287.00,355.00 Z
           M 289.00,357.00
           C 289.00,357.00 288.00,358.00 288.00,358.00
             288.00,358.00 288.00,357.00 288.00,357.00
             288.00,357.00 289.00,357.00 289.00,357.00 Z
           M 291.00,359.00
           C 291.00,359.00 290.00,360.00 290.00,360.00
             290.00,360.00 290.00,359.00 290.00,359.00
             290.00,359.00 291.00,359.00 291.00,359.00 Z
           M 480.00,359.00
           C 480.00,359.00 479.00,360.00 479.00,360.00
             479.00,360.00 479.00,359.00 479.00,359.00
             479.00,359.00 480.00,359.00 480.00,359.00 Z
           M 293.00,361.00
           C 293.00,361.00 292.00,362.00 292.00,362.00
             292.00,362.00 292.00,361.00 292.00,361.00
             292.00,361.00 293.00,361.00 293.00,361.00 Z
           M 478.00,361.00
           C 478.00,361.00 477.00,362.00 477.00,362.00
             477.00,362.00 477.00,361.00 477.00,361.00
             477.00,361.00 478.00,361.00 478.00,361.00 Z
           M 476.00,363.00
           C 476.00,363.00 475.00,364.00 475.00,364.00
             475.00,364.00 475.00,363.00 475.00,363.00
             475.00,363.00 476.00,363.00 476.00,363.00 Z
           M 474.00,365.00
           C 474.00,365.00 473.00,366.00 473.00,366.00
             473.00,366.00 473.00,365.00 473.00,365.00
             473.00,365.00 474.00,365.00 474.00,365.00 Z
           M 472.00,367.00
           C 472.00,367.00 471.00,368.00 471.00,368.00
             471.00,368.00 471.00,367.00 471.00,367.00
             471.00,367.00 472.00,367.00 472.00,367.00 Z
           M 464.00,373.00
           C 464.00,373.00 463.00,374.00 463.00,374.00
             463.00,374.00 463.00,373.00 463.00,373.00
             463.00,373.00 464.00,373.00 464.00,373.00 Z
           M 462.00,375.00
           C 462.00,375.00 461.00,376.00 461.00,376.00
             461.00,376.00 461.00,375.00 461.00,375.00
             461.00,375.00 462.00,375.00 462.00,375.00 Z
           M 460.00,377.00
           C 460.00,377.00 459.00,378.00 459.00,378.00
             459.00,378.00 459.00,377.00 459.00,377.00
             459.00,377.00 460.00,377.00 460.00,377.00 Z
           M 458.00,379.00
           C 458.00,379.00 457.00,380.00 457.00,380.00
             457.00,380.00 457.00,379.00 457.00,379.00
             457.00,379.00 458.00,379.00 458.00,379.00 Z
           M 456.00,381.00
           C 456.00,381.00 455.00,382.00 455.00,382.00
             455.00,382.00 455.00,381.00 455.00,381.00
             455.00,381.00 456.00,381.00 456.00,381.00 Z
           M 454.00,383.00
           C 454.00,383.00 453.00,384.00 453.00,384.00
             453.00,384.00 453.00,383.00 453.00,383.00
             453.00,383.00 454.00,383.00 454.00,383.00 Z
           M 452.00,385.00
           C 452.00,385.00 451.00,386.00 451.00,386.00
             451.00,386.00 451.00,385.00 451.00,385.00
             451.00,385.00 452.00,385.00 452.00,385.00 Z
           M 450.00,387.00
           C 450.00,387.00 449.00,388.00 449.00,388.00
             449.00,388.00 449.00,387.00 449.00,387.00
             449.00,387.00 450.00,387.00 450.00,387.00 Z
           M 448.00,389.00
           C 448.00,389.00 447.00,390.00 447.00,390.00
             447.00,390.00 447.00,389.00 447.00,389.00
             447.00,389.00 448.00,389.00 448.00,389.00 Z
           M 446.00,391.00
           C 446.00,391.00 445.00,392.00 445.00,392.00
             445.00,392.00 445.00,391.00 445.00,391.00
             445.00,391.00 446.00,391.00 446.00,391.00 Z
           M 438.00,397.00
           C 438.00,397.00 437.00,398.00 437.00,398.00
             437.00,398.00 437.00,397.00 437.00,397.00
             437.00,397.00 438.00,397.00 438.00,397.00 Z
           M 436.00,399.00
           C 436.00,399.00 435.00,400.00 435.00,400.00
             435.00,400.00 435.00,399.00 435.00,399.00
             435.00,399.00 436.00,399.00 436.00,399.00 Z
           M 434.00,401.00
           C 434.00,401.00 433.00,402.00 433.00,402.00
             433.00,402.00 433.00,401.00 433.00,401.00
             433.00,401.00 434.00,401.00 434.00,401.00 Z
           M 432.00,403.00
           C 432.00,403.00 431.00,404.00 431.00,404.00
             431.00,404.00 431.00,403.00 431.00,403.00
             431.00,403.00 432.00,403.00 432.00,403.00 Z
           M 430.00,405.00
           C 430.00,405.00 429.00,406.00 429.00,406.00
             429.00,406.00 429.00,405.00 429.00,405.00
             429.00,405.00 430.00,405.00 430.00,405.00 Z
           M 428.00,407.00
           C 428.00,407.00 427.00,408.00 427.00,408.00
             427.00,408.00 427.00,407.00 427.00,407.00
             427.00,407.00 428.00,407.00 428.00,407.00 Z
           M 426.00,409.00
           C 426.00,409.00 425.00,410.00 425.00,410.00
             425.00,410.00 425.00,409.00 425.00,409.00
             425.00,409.00 426.00,409.00 426.00,409.00 Z
           M 424.00,411.00
           C 424.00,411.00 423.00,412.00 423.00,412.00
             423.00,412.00 423.00,411.00 423.00,411.00
             423.00,411.00 424.00,411.00 424.00,411.00 Z
           M 422.00,413.00
           C 422.00,413.00 421.00,414.00 421.00,414.00
             421.00,414.00 421.00,413.00 421.00,413.00
             421.00,413.00 422.00,413.00 422.00,413.00 Z
           M 414.00,419.00
           C 414.00,419.00 413.00,420.00 413.00,420.00
             413.00,420.00 413.00,419.00 413.00,419.00
             413.00,419.00 414.00,419.00 414.00,419.00 Z
           M 412.00,421.00
           C 412.00,421.00 411.00,422.00 411.00,422.00
             411.00,422.00 411.00,421.00 411.00,421.00
             411.00,421.00 412.00,421.00 412.00,421.00 Z
           M 410.00,423.00
           C 410.00,423.00 409.00,424.00 409.00,424.00
             409.00,424.00 409.00,423.00 409.00,423.00
             409.00,423.00 410.00,423.00 410.00,423.00 Z
           M 408.00,425.00
           C 408.00,425.00 407.00,426.00 407.00,426.00
             407.00,426.00 407.00,425.00 407.00,425.00
             407.00,425.00 408.00,425.00 408.00,425.00 Z
           M 406.00,427.00
           C 406.00,427.00 405.00,428.00 405.00,428.00
             405.00,428.00 405.00,427.00 405.00,427.00
             405.00,427.00 406.00,427.00 406.00,427.00 Z" />
</svg>
